<svg height="1100" viewBox="0 0 1700 1100" width="1700" xmlns="http://www.w3.org/2000/svg"><path d="m785.100037 957.34668h-7.900025c-3.599975 0-6.400024-2.900025-6.5-6.5v-828.899964c0-3.600036 2.900025-6.400024 6.5-6.5h7.900025c3.599975 0 6.399963 2.899964 6.5 6.5v135.799988c0 4.899963-1.200013 9.599976-3.400025 14l-6.700012 13v79.200012l6.700012 13c2.200012 4.299988 3.400025 9.099976 3.400025 13.899964v269.700012c0 4.900024-1.200013 9.600037-3.400025 14l-6.700012 13v79.200012l6.700012 13c2.200012 4.299927 3.400025 9.099976 3.400025 13.900025v157.199951c0 3.599975-2.900025 6.5-6.5 6.5zm-7.900025-840.899964c-3 0-5.5 2.399964-5.5 5.5v828.899964c0 3 2.400025 5.5 5.5 5.5h7.900025c3 0 5.5-2.400025 5.5-5.5v-157.199951c0-4.699952-1.100037-9.300049-3.300049-13.5l-6.799988-13.100037c0-.099976-.099976-.200012-.099976-.200012v-79.5c0-.099976 0-.199951.099976-.199951l6.799988-13.100037c2.200012-4.200012 3.300049-8.799988 3.300049-13.5v-269.700012c0-4.700013-1.100037-9.299988-3.300049-13.5l-6.799988-13.099976c0-.100037-.099976-.200012-.099976-.200012v-79.5c0-.099976 0-.200012.099976-.200012l6.799988-13.099976c2.200012-4.200012 3.300049-8.799988 3.300049-13.5v-135.799988c0-3-2.400025-5.5-5.5-5.5z"/><path d="m771.299988 909.646729h-11.200012c-.299988 0-.5-.199952-.5-.5v-786.400025c0-.299988.200012-.5.5-.5h11.200012c.299988 0 .5.200012.5.5v786.400025c0 .300048-.200012.5-.5.5zm-10.700012-1h10.200012v-785.400025h-10.200012z"/><path d="m754.099976 1050.746704h-106.199952c-117 0-211.900024-94.800049-211.900024-211.900024v-567.200013c0-116.799987 95.099976-211.799987 211.900024-211.799987h106.199952c3.600036 0 6.5 2.900024 6.5 6.5v978c0 3.5-2.899964 6.400024-6.5 6.400024zm-106.199952-989.900024c-116.300048 0-210.900024 94.600036-210.900024 210.799987v567.200013c0 116.300049 94.599976 210.900024 210.900024 210.900024h106.199952c3 0 5.5-2.400024 5.5-5.5v-978c0-3-2.399964-5.5-5.5-5.5h-106.199952z"/><path d="m785.099976 767.84668h-4.200013c-.599975 0-1-.399964-1-1v-79.5c0-.599976.400025-1 1-1h4.200013c3.799987 0 6.900024 3.100036 7 7v67.600036c0 3.799988-3.099976 6.899964-7 6.899964zm-3.200013-2h3.200013c2.700012 0 5-2.199951 5-5v-67.599976c0-2.700012-2.200013-5-5-5h-3.200013z"/><path d="m785.099976 365.046692h-4.200013c-.599975 0-1-.400025-1-1v-79.5c0-.599976.400025-1 1-1h4.200013c3.799987 0 6.900024 3.099975 7 7v67.599975c0 3.800049-3.099976 6.900025-7 6.900025zm-3.200013-2h3.200013c2.700012 0 5-2.200012 5-5v-67.599976c0-2.700012-2.200013-5-5-5h-3.200013z"/><path d="m629.240295 1048.618042c-26.23468-3.012085-49.948425-8.445313-75.09082-20.980591-21.895325-10.916382-41.132385-25.71228-57.448761-42.500854-32.315491-33.250733-53.707306-77.783936-59.042175-126.688355-.372254-3.412109-.058228-30.445434-.336762-72.250488-1.056305-158.542053-.900604-520.575623.510926-534.409607 1.806274-17.702576 6.063018-36.491089 12.012085-52.358643 2.796875-7.4599 7.091308-15.776855 10.715423-23.138427 31.387665-63.757447 92.218109-104.379822 162.425018-113.583191 18.181275-2.383301 133.135376-3.259156 135.463929-.930664.153442.153442.874267 2.312378 1.045532 7.01123.404602 11.100525.350281 35.996155 1.262756 79.381592.688599 32.741333-.027404 76.313293.100525 132.519653.159851 70.25763-1.576599 160.162964-1.576599 274.770508 0 484.502441 1.443726 491.184937-.868713 492.422485-.324341.173584-2.470581 1.662964-5.338867 1.805054-21.910706 1.085571-119.240601-.542358-120.566468-.69458z" fill="#00bbdb" stroke="#000"/><path d="m609.937317 498.864685-13.35492 22.098694h26.7099z" fill="#fff" stroke="#fff" stroke-width="1.000284"/><path d="m623.100098 656.37915-12.794983 21.665162-12.794983-21.665162z" fill="#fff" stroke="#fff" stroke-width="1.000076"/><path d="m541.902344 575.487915-21.932129 13.354126 21.932129 13.354126z" fill="#fff" stroke="#fff" stroke-width="1.000381"/><path d="m702.414856 588.621582-25.581116 13.750488v-27.501098z" fill="#fff" stroke="#fff" stroke-width="1.000602"/><path d="m453.300446 190.046692c-.299988 0-.5-.099976-.700013-.299988l-3.399994-3.400024c-2-2-2.600006-5.099976-1.5-7.799988 34.800019-77.700012 112-127.700012 197.200013-127.799988h51.200012c3.799988 0 6.899963 3.099976 7 7v2.599976c0 .599975-.400025 1-1 1h-54.200012c-84.5-.099976-160.800019 50.400024-193.700013 128.100036-.100006.299988-.399993.5-.699981.599976-.100006 0-.200012 0-.200012 0zm191.600006-137.299988c-84.400025.099976-160.899994 49.700012-195.399994 126.700012-.800019 1.899964-.400025 4.099976 1.099975 5.5l2.400025 2.399964c33.599975-77.799988 110.300018-128.099976 194.999969-128h53.200012v-1.599976c0-2.700073-2.200012-5-5-5z"/><path d="m731.600464 166.84668h-46.900025c-2.200012 0-4-1.799988-4-4v-11.699951c0-2.200013 1.799988-4 4-4h46.900025c2.200012 0 4 1.799987 4 4v11.699951c0 2.200012-1.799988 4-4 4zm-46.900025-17.599976c-1.099975 0-2 .900025-2 2v11.700012c0 1.099976.900025 2 2 2h46.900025c1.099975 0 2-.900024 2-2v-11.700012c0-1.099975-.900025-2-2-2z"/><path d="m609.900452 553.646729c-21.200013 0-38.5-17.200013-38.5-38.500062 0-21.199951 17.200012-38.5 38.5-38.5 21.200012 0 38.5 17.200013 38.5 38.5 0 21.300049-17.200013 38.500062-38.5 38.500062zm0-74.900025c-20.099976 0-36.5 16.299988-36.5 36.5 0 20.099976 16.299987 36.5 36.5 36.5 20.099975 0 36.5-16.299988 36.5-36.5s-16.299988-36.5-36.5-36.5z"/><path d="m609.900452 700.546692c-21.200013 0-38.5-17.200012-38.5-38.5s17.200012-38.5 38.5-38.5c21.200012 0 38.5 17.200012 38.5 38.5s-17.200013 38.5-38.5 38.5zm0-74.899963c-20.099976 0-36.5 16.299987-36.5 36.5 0 20.199951 16.299987 36.5 36.5 36.5 20.200012 0 36.5-16.300049 36.5-36.5 0-20.200013-16.299988-36.5-36.5-36.5z"/><path d="m683.400452 627.046692c-21.200013 0-38.5-17.200012-38.5-38.5 0-21.200012 17.200012-38.5 38.5-38.5 21.299987 0 38.5 17.200012 38.5 38.5-.099976 21.299988-17.299988 38.5-38.5 38.5zm0-74.899963c-20.099976 0-36.5 16.299987-36.5 36.5 0 20.199951 16.299987 36.5 36.5 36.5 20.099975 0 36.5-16.300049 36.5-36.5-.099976-20.200013-16.400025-36.5-36.5-36.5z"/><path d="m536.500427 627.046692c-21.200012 0-38.5-17.200012-38.5-38.5 0-21.200012 17.200012-38.5 38.5-38.5s38.5 17.200012 38.5 38.5c-.099975 21.299988-17.299988 38.5-38.5 38.5zm0-74.899963c-20.099975 0-36.5 16.299987-36.5 36.5 0 20.099975 16.299988 36.5 36.5 36.5 20.099976 0 36.5-16.300049 36.5-36.5-.099975-20.200013-16.400024-36.5-36.5-36.5z"/><path d="m686.100464 804.446777h-45c-5.5 0-9.900025-4.400146-9.900025-9.900146v-44.999939c0-5.5 4.400025-9.899963 9.900025-9.899963h45c5.5 0 9.899963 4.399963 9.899963 9.899963v44.999939c0 5.5-4.5 9.900146-9.899963 9.900146zm-45-62.800048c-4.400025 0-7.900025 3.599975-7.900025 7.899963v44.999939c0 4.400146 3.600037 7.900146 7.900025 7.900146h45c4.399963 0 7.899963-3.600097 7.899963-7.900146v-44.999939c0-4.399963-3.599975-7.899963-7.899963-7.899963z"/><path d="m663.600464 792.446777c-11.299988 0-20.400025-9.200073-20.400025-20.400085 0-11.299988 9.200013-20.399963 20.400025-20.399963 11.299988 0 20.399963 9.199951 20.399963 20.399963 0 11.299988-9.099975 20.400085-20.399963 20.400085zm0-38.900085c-10.200012 0-18.400025 8.299988-18.400025 18.400024 0 10.099915 8.299988 18.399964 18.400025 18.399964 10.200012 0 18.399963-8.300049 18.399963-18.399964 0-10.100036-8.199951-18.299987-18.399963-18.400024z"/><path d="m546.800415 310.946716h-12.299988c-.599975 0-1-.400024-1-1 1.700012-39.600036 33.400025-71.300049 73-73 .299988 0 .5.099976.700012.299988.200013.200012.299988.399963.299988.700012v12.299988c0 3.5-2.599975 6.399963-6 6.899963-24.700012 3.700013-44.200012 23.100037-47.900024 47.900025-.399964 3.299988-3.299988 5.900024-6.799988 5.900024zm-11.200012-2h11.200012c2.5 0 4.600037-1.800049 4.900024-4.300049 3.899964-25.599975 24-45.699951 49.599976-49.599975 2.5-.299988 4.299988-2.400025 4.299988-4.900025v-11.199951c-37.399964 2.099976-67.899964 32.599976-70 70z"/><path d="m606.600464 389.646667c-39.600037-1.699951-71.299988-33.399963-73-73 0-.599975.399963-1 1-1h12.299988c3.5 0 6.400024 2.600037 6.900024 6 3.699951 24.700013 23.099976 44.200013 47.899963 47.900025 3.400025.5 6 3.400024 6 6.900024v12.299988c-.099975.5-.599975.899963-1.099975.899963zm-71-72c2.200012 37.400025 32.599975 67.800049 70 70v-11.199951c0-2.5-1.799988-4.600036-4.299988-4.900024-25.600037-3.900025-45.700012-24-49.600037-49.599976-.299987-2.5-2.399963-4.300049-4.899963-4.300049z"/><path d="m613.300415 389.646667c-.599976 0-1-.399963-1-1v-12.299987c0-3.5 2.600037-6.399964 6-6.899964 24.700012-3.700012 44.200012-23.100036 47.900024-47.900024.5-3.400025 3.399964-6 6.899964-6h12.300049c.599975 0 1 .400024 1 1-1.800049 39.700012-33.5 71.400024-73.100037 73.099975zm59.700012-72c-2.5 0-4.599975 1.800049-4.900024 4.300049-3.899964 25.599976-24 45.699951-49.599976 49.599976-2.5.299988-4.299988 2.400024-4.299988 4.900024v11.199951c37.399964-2.199951 67.799988-32.599975 70-70z"/><path d="m685.300476 310.946716h-12.300049c-3.5 0-6.399963-2.600036-6.899963-6-3.700012-24.700012-23.100037-44.200012-47.900025-47.900024-3.399963-.5-6-3.400025-6-6.900025v-12.299987c0-.299988.100037-.5.299988-.700013.200012-.199951.5-.299987.700012-.299987 39.600037 1.700012 71.299988 33.400024 73 73 .100037.600036-.299987 1.100036-.899963 1.100036zm-71-72v11.199951c0 2.5 1.799988 4.600037 4.299988 4.900025 25.599975 3.900024 45.700012 24 49.599975 49.599975.299988 2.5 2.400025 4.300049 4.900025 4.300049h11.200012c-2.200012-37.400024-32.700012-67.900024-70-70z"/><path d="m609.900452 389.746704c-1.200013 0-2.299988 0-3.400025-.100037-.5 0-.899963-.5-.899963-1v-12.299987c0-2.5-1.799988-4.599976-4.299988-4.899964-25.600037-3.900024-45.700012-24-49.600037-49.600036-.299987-2.5-2.399963-4.299988-4.899963-4.299988h-12.300049c-.5 0-1-.400025-1-.900025-.099975-1.099975-.099975-2.199951-.099975-3.399963s0-2.299988.099975-3.400024c0-.5.5-.899964 1-.899964h12.300049c2.5 0 4.599976-1.800049 4.899963-4.300049 3.900025-25.599975 24-45.699951 49.600037-49.599975 2.5-.299988 4.299988-2.400025 4.299988-4.900025v-12.299987c0-.5.399963-1 .899963-1 2.300049-.099976 4.5-.099976 6.800049 0 .5 0 .899963.5.899963 1v12.299987c0 2.5 1.799988 4.600037 4.299988 4.900025 25.600037 3.900024 45.700012 24 49.600037 49.599975.299988 2.5 2.399963 4.300049 4.899963 4.300049h12.300049c.5 0 1 .399964 1 .899964.099976 1.100036.099976 2.200012.099976 3.400024s0 2.299988-.099976 3.399963c0 .5-.5.900025-1 .900025h-12.300049c-2.5 0-4.599975 1.799988-4.899963 4.299988-3.900025 25.600036-24 45.700012-49.600037 49.600036-2.5.299988-4.299988 2.399964-4.299988 4.899964v12.299987c0 .5-.399963 1-.899963 1-1.100037.100037-2.200012.100037-3.400024.100037zm-2.299988-2c1.5.099976 3.099975.099976 4.700012 0v-11.299988c0-3.5 2.599976-6.400024 6-6.900024 24.699951-3.700012 44.199951-23.099976 47.899963-47.900025.5-3.399963 3.400025-6 6.900025-6h11.299988c0-.799987 0-1.5 0-2.299987 0-.799988 0-1.599976 0-2.299988h-11.400025c-3.5 0-6.399963-2.599976-6.899963-6-3.700012-24.700012-23.100037-44.200012-47.900025-47.900025-3.399963-.5-6-3.399963-6-6.899963v-11.299988c-1.5-.100036-3.099975-.100036-4.700012 0v11.299988c0 3.5-2.599975 6.399963-6 6.899963-24.699951 3.700013-44.199951 23.100037-47.899963 47.900025-.5 3.400024-3.400025 6-6.900025 6h-11.299987v2.299988 2.299987h11.299987c3.5 0 6.400025 2.600037 6.900025 6 3.700012 24.700013 23.099975 44.200013 47.899963 47.900025 3.400025.5 6 3.400024 6 6.900024z"/><path d="m530.027893 625.02594c-14.730652-3.252625-24.85553-12.70575-29.044189-27.117127-.985932-3.392211-1.216797-6.269592-.93512-11.655578.337769-6.458313.679443-7.768067 3.525482-13.512756 11.352142-22.914307 40.685883-27.927979 58.615326-10.018433 19.422302 19.400757 11.999207 51.86438-13.897827 60.78009-5.193543 1.788025-13.811035 2.507019-18.263672 1.523804zm12.598633-36.294617c0-7.350708-.181091-13.364929-.402405-13.364929-.895996 0-23.324524 13.180908-22.99292 13.512573.66449.664551 22.244751 13.113587 22.822693 13.165711.314941.028381.572632-5.962647.572632-13.313355z" fill="#1a1a1a" stroke="#000" stroke-width=".999997"/><path d="m604.505188 551.317627c-6.916992-.864868-15.042358-4.998047-20.485352-10.420532-14.585083-14.530152-14.559753-36.857117.058411-51.420166 23.028198-22.941407 62.268555-6.953186 62.268555 25.370971 0 10.348816-3.468994 18.753601-10.723023 25.980347-8.340332 8.308838-19.221924 11.976807-31.118591 10.48938zm18.582092-30.69281c-.918152-2.383545-12.792846-22.351013-13.288818-22.345215-.451416.005005-5.884705 9.052979-11.958069 19.913025l-2.015686 3.60437h13.857056c12.182861 0 13.802429-.141601 13.405517-1.17218z" fill="#1a1a1a" stroke="#000" stroke-width=".999997"/><path d="m601.214355 697.728333c-12.923217-3.466553-23.154174-13.735108-26.524047-26.62146-5.922486-22.647522 11.585388-45.21875 35.159484-45.327637 7.447144-.034363 11.29181.913147 18.099976 4.460754 16.902161 8.807312 23.848999 30.391663 15.407532 47.872437-7.542237 15.618652-25.640259 24.042602-42.142945 19.615906zm16.219666-30.061463c3.654236-6.302002 6.486206-11.615356 6.293274-11.807556-.192932-.192139-6.406616-.255676-13.808106-.141174l-13.457397.20813 6.66626 11.587768c3.666382 6.37323 6.890259 11.592957 7.164062 11.599304.273804.006043 3.48761-5.144531 7.141907-11.446472z" fill="#1a1a1a" stroke="#000" stroke-width=".999997"/><path d="m679.855347 624.990784c-.344788-.03888-1.627076-.270752-2.84961-.515381-11.238464-2.248902-20.922607-9.701782-26.173767-20.143189-2.82843-5.623962-4.202881-12.18396-3.75885-17.939514 1.142212-14.804382 11.330078-27.742187 25.618103-32.533081 8.754028-2.935303 18.044922-2.185058 26.729859 2.158447 8.69226 4.347168 15.487854 12.110962 18.643493 21.299744 5.258789 15.312988-.715515 32.170227-14.730285 41.563355-5.994568 4.0177-13.358094 6.282348-20.188355 6.208801-1.465027-.015686-2.945801-.060364-3.290588-.099304zm-.667176-23.085511c.711731-.358154 3.026978-1.620544 5.144959-2.805175 8.667663-4.848267 15.639465-9.168091 16.215942-10.04773.27948-.426391.280762-.497558.016602-.900635-.869629-1.326782-21.507385-13.529419-22.881714-13.529419-.259277 0-.565613.113526-.680786.252259-.413757.498352-.597107 4.785034-.594299 13.893921.00299 9.061584.177978 13.03424.597412 13.539489.3208.386414.783264.301087 2.181884-.40271z" fill="#1a1a1a" stroke="#000"/><path d="m659.960144 789.843994c-1.016052-.219238-2.975586-.947754-4.354492-1.61914-2.094177-1.019532-2.881165-1.594605-4.777527-3.490967-1.897888-1.897827-2.470276-2.681519-3.48938-4.777344-2.666504-5.483948-2.666077-10.55719.000977-16.085815 1.013305-2.10022 1.563293-2.85254 3.480957-4.761963 3.629638-3.614075 7.727539-5.339783 12.701965-5.349244 8.35144-.015747 15.682983 5.715821 17.812134 13.92511.523254 2.017517.5401 6.16565.033874 8.347962-1.470703 6.340088-6.308532 11.449341-12.699707 13.412109-2.449218.752197-6.262024.927002-8.709045.399292z" fill="#333" stroke="#fff"/><path d="m639.230103 802.032959c-1.599427-.436035-2.947632-1.298584-4.058716-2.596558-1.812622-2.117675-1.734253-.879882-1.734253-27.397277 0-26.734009-.097229-25.306885 1.876526-27.549195.583069-.662414 1.712036-1.514892 2.553344-1.928039l1.508118-.74054h24.153381 24.153382l1.776733.874634c1.257263.618957 2.048218 1.230286 2.705445 2.091003 1.787292 2.34076 1.727416 1.330994 1.648132 27.800415-.071167 23.784912-.073303 23.867554-.638611 25.090454-.723389 1.56482-2.261719 3.10315-3.93042 3.93042l-1.308472.648682-23.751953.051636c-18.213928.039551-24.031921-.024781-24.952636-.275635zm27.289978-9.680786c10.60321-1.532837 18.090942-10.668091 17.505004-21.356568-.184326-3.362121-.669128-5.270751-2.047485-8.061401-4.592346-9.297546-15.465576-13.677551-25.307861-10.194641-2.761658.977295-4.688721 2.167664-7.028382 4.341492-3.051452 2.835144-5.116882 6.346313-6.04248 10.272155-.507141 2.151001-.507141 7.220887 0 9.371888.921692 3.909179 2.954224 7.374511 6.013306 10.252197 2.208801 2.077881 4.164672 3.31665 6.721435 4.257324 3.40625 1.253174 6.727783 1.617432 10.186463 1.117554z" fill="#1a1a1a" stroke="#000"/><path d="m607.772949 381.09198c0-6.020264-.046203-6.518127-.730774-7.871216-1.061645-2.098511-2.952514-3.394775-5.653137-3.875366-15.060608-2.680237-27.495727-10.150085-36.518555-21.936951-4.96936-6.491577-8.830688-15.110962-10.388733-23.189758-.834716-4.32843-1.39978-5.658936-2.97644-7.008484-1.7724-1.517151-3.304077-1.792541-9.968872-1.792541h-5.864624v-2.111084-2.111084h6.26947c6.12909 0 6.308045-.019165 7.994507-.85962 2.444397-1.218078 3.321777-2.7406 4.223328-7.32904 4.569275-23.254028 22.395324-40.976807 45.632141-45.367737 4.161316-.786316 5.574402-1.572021 6.908203-3.841125.904785-1.539307.911865-1.595398 1.021179-8.12677l.110046-6.576783h2.082215 2.082214v6.274964c0 6.201904.010376 6.295471.893128 8.036255 1.326294 2.615539 2.650756 3.376464 7.56604 4.346862 19.379211 3.825928 35.088562 16.983948 42.285156 35.417725 1.043823 2.673767 1.943726 5.931641 3.318298 12.013733.589051 2.606262 1.673706 4.164612 3.603089 5.176758 1.151306.603943 1.951416.682556 7.858581.772156l6.576843.099853v2.092468 2.092469h-6.26947c-6.129089 0-6.308044.019226-7.994507.85968-2.201782 1.097168-3.39862 2.902221-3.908508 5.894714-4.060913 23.834534-22.224182 42.327149-45.971558 46.805298-4.25354.802124-5.717956 1.6604-6.965026 4.081909-.793274 1.540466-.834534 1.893006-.940247 8.035339l-.110596 6.424195h-2.081665-2.081726z" fill="#1a1a1a" stroke="#1a1a1a"/><path d="m535.788635 308.028931c.092591-.491272.260132-1.916199.372193-3.166626.345642-3.856812 1.738647-10.120423 3.279358-14.745484 8.021423-24.079712 28.10083-42.704651 52.743347-48.922851 3.123962-.788269 7.581665-1.548767 11.286071-1.925415l2.029908-.206421v5.872619c0 8.542664-.385437 9.154236-6.538574 10.375611-18.427063 3.657776-33.667664 15.252075-41.920167 31.890747-2.550048 5.141418-4.145874 10.088562-5.473754 16.969116-.458252 2.374573-1.818421 3.998474-3.715943 4.436462-.714538.164917-3.758728.303345-6.765014.307618l-5.465821.007995z" fill="#1a1a1a" stroke="#4d4d4d"/><path d="m601.764526 387.140503c-26.997924-3.047546-50.793274-21.357544-60.921753-46.877991-2.382141-6.002197-4.221191-13.357849-4.678283-18.711914-.112549-1.318909-.275086-2.738037-.361145-3.153747l-.156433-.755738 6.322754.106201c5.78601.097229 6.398864.163025 7.21875.775818 1.580688 1.181397 2.038757 2.171509 2.892761 6.253113 1.219726 5.82898 2.453735 9.358582 5.187622 14.837525 2.859009 5.729736 5.674011 9.778869 9.859375 14.181579 8.619995 9.06781 19.696716 15.165161 31.731079 17.466858 3.634216.695068 4.631348 1.165466 5.808227 2.739807.61316.820374.678101 1.427612.770081 7.206299.094299 5.922241.064331 6.307861-.487122 6.268005-.323242-.023315-1.756897-.174499-3.185913-.335815z" fill="#1a1a1a" stroke="#4d4d4d"/><path d="m671.670288 308.457825c-2.390381-.852967-2.818542-1.585022-3.8125-6.518494-3.667847-18.20581-15.404358-33.460022-31.991394-41.579895-4.81665-2.35791-8.582092-3.67041-13.478332-4.698181-4.721985-.99115-6.170777-1.586731-7.056214-2.900574-.704956-1.046142-.738525-1.381348-.738525-7.381103 0-3.456849.115173-6.285157.25592-6.285157s1.931153.209229 3.978577.465027c11.968689 1.495056 22.855957 5.629761 32.790405 12.452881 4.369751 3.00116 7.416016 5.606934 11.576843 9.902588 9.303955 9.60553 15.50824 20.667114 18.779663 33.482239.932312 3.65216 2.121521 10.885986 2.121521 12.905151 0 .586426-.30133.619019-5.602478.60553-3.829467-.01001-5.98883-.152161-6.823486-.450012z" fill="#1a1a1a" stroke="#4d4d4d"/><path d="m614.32489 381.208435c.096985-5.773498.163025-6.386536.775635-7.206238 1.182739-1.582458 2.171875-2.029297 6.332092-2.860412 23.487061-4.692383 41.896118-23.31366 46.43689-46.972229.667785-3.479187 1.1474-4.478516 2.710083-5.646424.819885-.612793 1.432739-.67865 7.220764-.775818l6.324829-.106201-.195862 1.730103c-1.191101 10.518555-3.299194 17.984192-7.458557 26.41333-11.178345 22.653686-32.933594 38.141968-57.967773 41.269226-2.047425.255737-3.848938.465027-4.003357.465027s-.233032-2.839661-.174744-6.310364z" fill="#1a1a1a" stroke="#4d4d4d"/><path d="m683.602539 164.204346c-.553039-.55304-.673218-1.837525-.673218-7.197266 0-4.503113.159241-6.68335.514099-7.038208.387696-.387695 6.438416-.514099 24.603089-.514099 21.32782 0 24.166137.077209 24.762146.673218.551697.551635.673279 1.823608.673279 7.044494 0 6.098267-.040833 6.399842-.952149 7.038208-.833862.584046-3.890564.66687-24.603088.66687-20.929627 0-23.728394-.077453-24.324158-.673217z" fill="#1a1a1a" stroke="#000" stroke-width=".999998"/><path d="m450.977783 184.935791c-2.353271-2.749268-2.1893-3.662659 2.266815-12.62793 10.768128-21.664367 23.626404-39.591491 40.526398-56.502441 31.346558-31.36676 71.58313-52.224976 115.267395-59.753174 15.070557-2.597168 16.539185-2.675171 54.037659-2.868652l34.769226-.179566 1.350891 1.207154c.967712.864746 1.418762 1.713012 1.590088 2.990234l.239075 1.783081-33.788758.194214c-36.250915.208252-38.765259.335083-53.255493 2.685791-38.392029 6.228149-72.891601 22.039917-103.29306 47.340698-6.792237 5.65271-19.465454 18.331177-25.224823 25.235352-8.363617 10.026001-16.479035 21.676513-22.544495 32.364868-3.076843 5.421875-9.618011 18.649963-9.618011 19.450256 0 .910645-.805359.453064-2.322907-1.319885z" stroke="#4d4d4d" stroke-width=".999998"/><path d="m770.448425 666.730408c0-216.024903-.021484-633.986023.127014-525.973572.148438 108.012451.291382 614.347412.142945 722.359863-.0401 29.206177-.090698 43.200196-.125 45.047852-.092591 4.98584-.144959-83.821533-.144959-241.434143z" stroke="#000"/><path d="m772.629883 953.910645c-1.482788-2.116944-.83252-44.167725-.83252-417.615479 0-373.447815-.811645-415.197449.671204-417.314453 1.375915-1.964417 3.408996-2.252625 8.485229-2.252625 1.770935 0 3.841675-.088012 5.429078.210877 1.406189.264709 3.16687 2.038025 3.494689 2.365784.495179.495178.321656 4.318359.439576 16.368164.111084 11.353393-.222535 28.989257-.222535 55.337341 0 44.70636.609437 61.763489.135987 69.788696-.257446 4.363281-1.184937 6.13501-1.901123 8.049195-1.161011 3.103027-3.863648 8.155944-5.610108 10.909851l-3.175415 5.00708.39856 40.347717c.371521 37.61499-.214478 39.050781 1.635498 41.674133 1.088379 1.543518 2.947388 6.134949 4.621094 9.33313l3.043029 5.814942 1.312867 7.931518-.07074 19.787537-.1073 15.79956-.211365 97.914124c-.200988 93.131042 1.25116 126.690063-.280212 141.093567-.442383 4.160644-1.621338 6.515869-2.282166 8.502075-.905151 2.720459-2.092712 4.907837-3.846557 7.820434l-3.660645 6.079102.379212 15.572937.110718 25.066223c.117126 26.52478.580444 40.426819 1.289916 40.865296.595948.368347 2.692261 4.041137 4.325745 8.449524l3.322571 8.966796 1.09729 9.023438-.191162 15.867432-.189453 57.865112c-.202576 61.88501.423828 84.476806-.469605 85.553345-.776367.935546-4.477783 2.427612-8.421936 2.427612-5.161011 0-7.339233-.639404-8.719482-2.609985z" fill="#1a1a1a" stroke="#000"/><path d="m761.224731 515.678528v-392.243836h4.229004 4.229065v392.243836l1.117188 392.968201-5.325379.182617-4.874633-.182617z" fill="#1a1a1a" stroke="#000"/><path d="m781.899963 324.07959v-38.632874h3.04187c1.744385 0 3.586854.885376 4.319397 2.075684 1.73761 2.823242 1.73761 70.291199 0 73.11438-.732543 1.190368-2.575012 2.075744-4.319397 2.075744h-3.04187z" fill="#00bbdb" stroke="#000"/><path d="m781.900024 726.910706v-38.664002h3.043763c1.745483 0 3.589111.886109 4.322143 2.077393 1.738709 2.825439 1.738709 70.347778 0 73.173217-.733032 1.191285-2.57666 2.077393-4.322143 2.077393h-3.043763z" fill="#00bbdb" stroke="#000"/><g fill="#ff5f55" opacity=".1"><path d="m904.200012 284.646667v79.5h-4.200012c-3.299988 0-6-2.699951-6-6v-67.599975c0-3.299988 2.700012-6 6-6h4.200012z"/><path d="m904.200012 687.34668v79.5h-4.200012c-3.299988 0-6-2.699951-6-6v-67.599976c0-3.299988 2.700012-6 6-6h4.200012z"/><path d="m1235.300049 185.646667-3.400025 3.400025c-33.199951-78-109.800048-128.700012-194.699951-128.700012h-54.200073v-2.599976c0-3.300049 2.700012-6 6-6h51.200073c84.799927 0 161.699951 49.799988 196.399903 127.200012 1 2.299988.5 4.899964-1.299927 6.699951z"/><path d="m985.799988 145.246704v-11.700012c0-1.599976-1.299988-3-3-3h-11.700012c-1.599976 0-3 1.299988-3 3v11.700012c0 1.599976-1.299988 3-3 3h-11.700013c-1.599975 0-3 1.299988-3 3v11.700012c0 1.599976 1.300049 3 3 3h11.700013c1.600036 0 3 1.299988 3 3v11.699951c0 1.600037 1.299987 3 3 3h11.700012c1.599975 0 3-1.299987 3-3v-11.699951c0-1.600036 1.299988-3 3-3h11.700012c1.599976 0 3-1.299987 3-3v-11.700012c0-1.599975-1.299988-3-3-3h-11.700012c-1.700012 0-3-1.400024-3-3z"/><path d="m1112.700073 384.646667c0 20.710694-16.789428 37.5-37.5 37.5-20.710693 0-37.5-16.789306-37.5-37.5 0-20.710632 16.789307-37.5 37.5-37.5 20.710572 0 37.5 16.789368 37.5 37.5z"/><path d="m1112.700073 237.84668c0 20.710693-16.789428 37.5-37.5 37.5-20.710693 0-37.5-16.789307-37.5-37.5 0-20.710633 16.789307-37.5 37.5-37.5 20.710572 0 37.5 16.789367 37.5 37.5z"/><path d="m1186.099976 311.246704c0 20.710693-16.789307 37.5-37.5 37.5-20.710694 0-37.5-16.789307-37.5-37.5s16.789306-37.5 37.5-37.5c20.710693 0 37.5 16.789307 37.5 37.5z"/><path d="m1039.300049 311.246704c0 20.710693-16.789368 37.5-37.500061 37.5-20.710694 0-37.5-16.789307-37.5-37.5s16.789306-37.5 37.5-37.5c20.710693 0 37.500061 16.789307 37.500061 37.5z"/><path d="m1049.200073 772.046692c0 15.408752-12.491333 27.900085-27.900085 27.900085-15.408753 0-27.900025-12.491333-27.900025-27.900085 0-15.408753 12.491272-27.899963 27.900025-27.899963 15.408752 0 27.900085 12.49121 27.900085 27.899963z"/><path d="m1071.900024 511.046692v12.299988c0 3-2.199951 5.5-5.199951 5.900024-25.200073 3.700012-45.000061 23.5-48.700073 48.700012-.400024 2.899964-2.900024 5.099976-5.900024 5.200013h-12.299988c1.700012-39.100037 33.000061-70.400025 72.100036-72.100037z"/><path d="m1071.900024 649.546692v12.299988c-39.099975-1.699951-70.300048-33-72.100036-72h12.299988c3 0 5.5 2.200012 5.900024 5.200012 3.700012 25.200012 23.5 45 48.700073 48.700012 3 .299988 5.199951 2.799988 5.199951 5.799988z"/><path d="m1150.599976 589.746704c-1.699952 39.099976-33 70.299988-72.099976 72v-12.299988c0-3 2.200073-5.5 5.200073-5.900024 25.199951-3.700012 45-23.5 48.699951-48.700012.400025-2.899964 2.900025-5.099976 5.900025-5.199951z"/><path d="m1150.599976 583.146729h-12.299927c-3 0-5.5-2.200013-5.900025-5.200013-3.699951-25.200012-23.5-45-48.699951-48.700012-2.900024-.400024-5.100097-2.900024-5.200073-5.900024v-12.299988c39.099976 1.700012 70.400024 33 72.099976 72.100037z"/><path d="m1150.700073 586.446716c0 1.099976 0 2.200013-.100097 3.299988h-12.299927c-3 0-5.5 2.200012-5.900025 5.200012-3.699951 25.200013-23.5 45-48.699951 48.700013-2.900024.399963-5.100097 2.899963-5.200073 5.899963v12.299988c-1.099976.100036-2.199951.100036-3.299927.100036-1.100097 0-2.200073 0-3.300049-.100036v-12.299988c0-3-2.199951-5.5-5.199951-5.899963-25.200073-3.700013-45.000061-23.5-48.700073-48.700013-.400024-2.900024-2.900024-5.100036-5.900024-5.200012h-12.299988c-.099976-1.099975-.099976-2.200012-.099976-3.299988 0-1.100036 0-2.200012.099976-3.299987h12.299988c3 0 5.5-2.200013 5.900024-5.200013 3.700012-25.200012 23.5-45 48.700073-48.700012 2.899903-.400024 5.099976-2.900024 5.199951-5.900024v-12.299988c1.099976-.099976 2.199952-.099976 3.300049-.099976 1.099976 0 2.199951 0 3.299927.099976v12.299988c0 3 2.200073 5.5 5.200073 5.900024 25.199951 3.700012 45 23.5 48.699951 48.700012.400025 2.899964 2.900025 5.099976 5.900025 5.200013h12.299927c0 1.099975.100097 2.199951.100097 3.299987z"/></g><path d="m907.899963 957.34668h-7.899963c-3.600037 0-6.400024-2.900025-6.5-6.5v-157.199951c0-4.900025 1.200012-9.600098 3.399963-13.900025l6.700013-13v-79.200012l-6.700013-13c-2.199951-4.299988-3.399963-9.099976-3.399963-14v-269.700012c0-4.899964 1.200012-9.599976 3.399963-13.899964l6.700013-13v-79.200012l-6.700013-13c-2.199951-4.299988-3.399963-9.100037-3.399963-14v-135.799988c0-3.600036 2.899963-6.400024 6.5-6.5h7.899963c3.600037 0 6.400025 2.899964 6.5 6.5 1.062622 276.297791 1.220704 552.597657 0 828.899964-.099975 3.599975-3 6.5-6.5 6.5zm-7.899963-840.899964c-3 0-5.5 2.399964-5.5 5.5v135.799988c0 4.700012 1.099976 9.299988 3.299988 13.5l6.799988 13.099976c0 .100036.100036.100036.100036.200012v79.5c0 .099975 0 .200012-.100036.200012l-6.799988 13.099976c-2.200012 4.200012-3.299988 8.799987-3.299988 13.5v269.700012c0 4.700012 1.099976 9.299988 3.299988 13.5l6.799988 13.100037c0 .099975.100036.099975.100036.199951v79.5c0 .100036 0 .200012-.100036.200012l-6.799988 13.100037c-2.200012 4.199951-3.299988 8.800048-3.299988 13.5v157.199951c0 3 2.399963 5.5 5.5 5.5h7.899963c3 0 5.5-2.400025 5.5-5.5v-828.899964c0-3-2.399963-5.5-5.5-5.5z"/><path d="m925.099976 909.646729h-11.299988c-.299988 0-.5-.199952-.5-.5l.757507-786.429261c.000244-.299988.200012-.5.5-.5h11.299988c.299988 0-.257507.229248-.257507.529236v786.400025c0 .300048-.200013.5-.5.5zm-9.936829-1h9.436829l.757507-785.429261h-10.299988l1.009216 8.753052c-.58258 256.113709 4.514832 511.751221-1.088012 768.299622-.060791 2.783081.247619 5.593383.184448 8.376587z"/><path d="m1036.9823 1051.000854h-106.199951c-3.600037 0-6.5-2.899902-6.5-6.499877v-978c0-3.600098 2.899963-6.5 6.5-6.5h106.199951c116.800049 0 211.900024 95.099975 211.900024 211.899963v567.200012c0 117-94.799927 211.899902-211.900024 211.899902zm-106.199951-989.899902c-3 0-5.5 2.400025-5.5 5.5v978c0 3 2.399963 5.5 5.5 5.5h106.199951c116.300049 0 210.900024-94.599975 210.900024-210.900024v-567.299988c0-116.299988-94.599975-210.899963-210.900024-210.899963z"/><path d="m904.200012 365.046692h-4.200012c-3.799988 0-6.900024-3.099976-7-7v-67.599976c0-3.800049 3.099976-6.900024 7-7h4.200012c.599976 0 1 .399964 1 1v79.5c0 .699951-.5 1.099976-1 1.099976zm-4.200012-79.5c-2.700012 0-5 2.200012-5 5v67.599975c0 2.700013 2.200012 5 5 5h3.200012v-77.5h-3.200012z"/><path d="m904.200012 767.84668h-4.200012c-3.799988 0-6.900024-3.099976-7-7v-67.599976c0-3.799988 3.099976-6.900024 7-7h4.200012c.599976 0 1 .400025 1 1v79.5c0 .599976-.5 1.099976-1 1.099976zm-4.200012-79.5c-2.700012 0-5 2.200012-5 5v67.600036c0 2.700013 2.200012 5 5 5h3.200012v-77.5h-3.200012z"/><path d="m1055.067383 1049.425903c26.618286-2.355102 50.501343-9.199951 75.945801-21.766113 5.091064-2.514282 10.044799-5.200684 14.855835-8.051514 19.104492-11.320556 36.269165-27.082885 49.597534-41.739013 25.48938-28.028687 45.456299-70.081665 51.376098-116.524048.083985-.65918.396607-4.266236.373291-6.753906-.064087-6.857544.645264-20.00293.801636-38.338623.661377-77.55481 1.09375-244.039795 1.06604-376.436707-.021118-101.202332-.311035-182.487427-.973022-188.912842-2.687378-26.089294-9.300904-49.058594-20.769776-72.135498-31.764526-63.91449-92.954101-107.44342-164.004394-116.669372-11.362427-1.475464-60.698731-1.651246-96.601624-1.326172-7.736938.069946-14.067749-.081543-20.135193.05603-7.469604.169312-12.899719-.068604-16.20343.249023-1.725464.165772-3.02594.790162-3.227539.989869-.101745.100708-1.424682 1.382812-1.534363 3.348022-.288818 5.17395-.255798 17.114441-.437622 38.051819-.036743 4.233948-.072937 8.833313-.108276 13.815308-.034973 4.930664.132629 10.123657.099243 15.820556-.051514 8.771912.124207 18.558777.071472 29.251099-.048401 9.810119-.245056 20.496704.002014 32.016113.192444 8.972412.204102 18.376038.156189 28.43634-.072021 15.104065.591675 31.148804.324402 48.968995-.224548 14.97583.115845 29.987854-.03717 46.924499-.100098 11.075745.079223 22.615662-.020996 34.606201-.060181 7.200684-.007996 14.539673-.079407 22.07312-.495911 52.107239-.018372 112.208191-.018372 180.332947 0 254.314575-.315002 376.100098-.049621 435.152588.034424 7.666992-.197083 14.45105-.130432 20.149048.025695 2.195679-.044495 4.297607-.018433 6.231933.044922 3.31897-.034607 6.642701.013001 9.257691.053405 2.930054-.065003 5.804443-.005982 7.96228.135864 4.987915.095703 8.097046.274414 10.036743.261719 2.841065 1.264893 3.57898 1.560364 3.826172.21875.182984 1.301758.928833 3.079346 1.087647 4.532776.405151 14.557556.347778 27.089721.226562 9.863892-.095459 21.281128-.230346 32.796387-.210205 32.132263.055908 65.23407.254883 64.873108-.005981z" fill="#ff5f53" stroke="#000005" stroke-opacity=".956863" stroke-width="1.00051"/><path d="m1021.299988 813.946777c-23.099976 0-41.900025-18.700073-41.900025-41.900085s18.700013-41.899963 41.900025-41.899963 41.900085 18.699951 41.900085 41.899963c-.100097 23.100037-18.800049 41.799988-41.900085 41.900085zm0-82.800048c-22.599976 0-40.900025 18.299987-40.900025 40.899963 0 22.600037 18.300049 40.900085 40.900025 40.900085 22.600036 0 40.900085-18.300048 40.900085-40.900085-.100097-22.599976-18.300049-40.899963-40.900085-40.899963z"/><path d="m1088.5 253.946716h-5.5l-7.641968-10.915893-7.95813 10.915893h-5.399902l10.599976-16.300049-9.799927-15.599975h5.199951l7.4375 10.563904 7.262451-10.563904h5l-9.800049 15.400024z" fill="#fff"/><path d="m1015.5 295.246704-11.600037 20.599976v11.400024h-4.399963v-11.5l-11.600037-20.5h5.300049l6.399964 11.700012 2.081482 2.987854 2.418518-2.58789 6.400024-12.099976z" fill="#fff"/><path d="m1162.200073 327.246704h-4.700073l-2.199951-7-12.363403.328308-3.236573 6.671692h-4.5l9.926758-35.204285 6.673218 3.204285zm-8.734985-11.270569-4.883423-14.594116-4.585449 14.81189z" fill="#fff"/><path d="m1085.700073 391.146667c0 1.400025-.300049 2.800049-.900024 4.100037-.599976 1.200012-1.5 2.200012-2.5 3-1.200073.899963-2.599976 1.5-4 1.899963-1.700073.400025-3.400025.700013-5.200073.600037h-8.399903v-32h9.199951c7.099976 0 10.699952 2.599976 10.699952 7.799988 0 1.599975-.399903 3.099975-1.199952 4.5-1 1.400024-1.005371 2.326721-2.605346 2.826721.900024.199951.305298.373291 1.105346.773254.800049.400025 1.5.900025 2 1.5.599976.600037 1.099976 1.400025 1.400025 2.200013.199951.799987.400024 1.799987.400024 2.799987zm-5.700073-14.099975c0-.599976-.099976-1.299988-.299927-1.799988-.200073-.600037-.600097-1.100037-1-1.5-.600097-.5-1.300049-.799988-2-1-1-.299988-2.100097-.400024-3.200073-.400024h-4.5v10h4.400024c.900025 0 1.800049-.099976 2.699952-.299988.800048-.200012 1.5-.5 2.100097-1 .599976-.400025 1-1 1.299927-1.700012.400024-.700013.5-1.5.5-2.299988zm1.099976 14.200012c0-.799988-.199952-1.5-.5-2.200012-.399903-.700012-.899903-1.200012-1.5-1.700012-.699952-.5-1.5-.799988-2.399903-1-1-.299988-2.100097-.399964-3.200073-.399964h-4.5v11h4.599976c2.5 0 4.400024-.5 5.600097-1.400024 1.299927-1 2-2.599976 1.899903-4.299988z" fill="#fff"/><path d="m1231.900024 190.046692c-.099975 0-.099975 0-.199951 0-.300049-.099976-.600097-.299988-.700073-.599976-33-77.700012-109.299927-128.200012-193.799927-128.100036h-54.200073c-.600037 0-1-.400025-1-1v-2.599976c0-3.800049 3.099976-6.900024 7-7h51.200073c85.199951.099976 162.399903 50.099976 197.299927 127.799988 1.200073 2.599975.599976 5.700012-1.5 7.799988l-3.400024 3.400024c-.199952.200012-.5.299988-.699952.299988zm-247.900024-130.700012h53.200073c84.699951-.099976 161.299927 50.200012 195 128l2.399903-2.399964c1.5-1.400024 1.900024-3.600036 1.100097-5.5-34.600097-77-111.100097-126.600036-195.5-126.700012h-51.200073c-2.700012 0-5 2.199951-5 5z"/><path d="m982.799988 184.446716h-11.700012c-2.200013 0-4-1.800049-4-4v-11.700012c0-1.099975-.899964-2-2-2h-11.700013c-2.199951 0-4-1.799988-4-4v-11.700012c0-2.200012 1.800049-4 4-4h11.700013c1.100036 0 2-.899963 2-2v-11.5c0-2.200012 1.799987-4 4-4h11.700012c2.200012 0 4 1.799988 4 4v11.700012c0 1.099976.900024 2 2 2h11.700012c2.200012 0 4 1.799988 4 4v11.700012c0 2.200013-1.799988 4-4 4h-11.700012c-1.099976 0-2 .899964-2 2v11.699951c0 2-1.799988 3.800049-4 3.800049zm-29.299988-35.200012c-1.100037 0-2 .900025-2 2v11.700012c0 1.099976.899963 2 2 2h11.700012c2.199951 0 4 1.799988 4 4v11.699951c0 1.100037.899964 2 2 2h11.699951c1.100037 0 2-.899963 2-2v-11.699951c0-2.200012 1.800049-4 4-4h11.700013c1.100036 0 2-.900024 2-2v-11.700012c0-1.099975-.899964-2-2-2h-11.700013c-2.199951 0-4-1.799988-4-4v-11.700012c0-1.099976-.899963-2-2-2h-11.699951c-1.100036 0-2 .900024-2 2v11.700012c0 2.200012-1.800049 4-4 4z"/><path d="m1075.200073 423.146667c-21.200073 0-38.5-17.199951-38.5-38.5 0-21.199951 17.199951-38.5 38.5-38.5 21.199951 0 38.5 17.200013 38.5 38.5-.100097 21.300049-17.300049 38.5-38.5 38.5zm0-74.899963c-20.100097 0-36.5 16.299988-36.5 36.5 0 20.099976 16.299927 36.5 36.5 36.5 20.099976 0 36.5-16.299988 36.5-36.5-.100097-20.200012-16.400024-36.5-36.5-36.5z"/><path d="m1075.200073 276.246704c-21.200073 0-38.5-17.200012-38.5-38.5 0-21.200012 17.199951-38.5 38.5-38.5 21.199951 0 38.5 17.200012 38.5 38.5-.100097 21.299988-17.300049 38.5-38.5 38.5zm0-74.900024c-20.100097 0-36.5 16.299987-36.5 36.5 0 20.100036 16.299927 36.5 36.5 36.5 20.099976 0 36.5-16.299988 36.5-36.5-.100097-20.200013-16.400024-36.5-36.5-36.5z"/><path d="m1148.599976 349.746704c-21.199952 0-38.5-17.200012-38.5-38.5 0-21.200012 17.200073-38.5 38.5-38.5 21.200073 0 38.5 17.200012 38.5 38.5 0 21.200012-17.199952 38.399963-38.5 38.5zm0-75c-20.099976 0-36.5 16.299988-36.5 36.5 0 20.099976 16.300048 36.5 36.5 36.5 20.100097 0 36.5-16.299988 36.5-36.5 0-20.100037-16.299927-36.5-36.5-36.5z"/><path d="m1001.799988 349.746704c-21.200012 0-38.5-17.200012-38.5-38.5 0-21.200012 17.200012-38.5 38.5-38.5 21.200012 0 38.500061 17.200012 38.500061 38.5-.099976 21.200012-17.300049 38.399963-38.500061 38.5zm0-75c-20.099976 0-36.5 16.299988-36.5 36.5 0 20.099976 16.207031 36.197388 36.407043 36.197388 20.099976 0 36.593018-15.997376 36.593018-36.197388-.099976-20.100037-16.400086-36.5-36.500061-36.5z"/><path d="m1021.299988 800.946777c-16 0-28.900025-13-28.900025-28.900085 0-15.899963 13-28.899963 28.900025-28.899963 16.000061 0 28.900085 13 28.900085 28.899963 0 15.999939-12.900024 28.900085-28.900085 28.900085zm0-55.900085c-14.900025 0-26.900025 12.100037-26.900025 26.900024 0 14.799988 12.100037 26.899964 26.900025 26.899964 14.900085 0 26.900085-12.099976 26.900085-26.899964 0-14.799987-12-26.799987-26.900085-26.900024z"/><path d="m1012.099976 584.146729h-12.299988c-.599976 0-1-.400025-1-1 1.700012-39.600037 33.400085-71.300049 73.000061-73.000062.299927 0 .5.100037.699951.300049.200073.199951.300049.399964.300049.699951v12.300049c0 3.5-2.599976 6.399964-6 6.899964-24.700073 3.700012-44.200073 23.100036-47.900086 47.900024-.399963 3.299988-3.299987 5.900025-6.799987 5.900025zm-11.200013-2h11.200013c2.5 0 4.600036-1.800049 4.900024-4.300049 3.899963-25.599976 24-45.700013 49.599976-49.599976 2.5-.299988 4.300048-2.400024 4.300048-4.900024v-11.200013c-37.400024 2.100037-67.900024 32.600037-70.000061 70.000062z"/><path d="m1071.900024 662.84668c-39.599975-1.699951-71.300048-33.399964-73.000061-73 0-.599976.400025-1 1-1h12.300049c3.5 0 6.399964 2.600036 6.899964 6 3.700012 24.700012 23.100097 44.200012 47.900024 47.900024 3.400024.5 6 3.400025 6 6.900025v12.299987c-.099976.399964-.599976.899964-1.099976.899964zm-71.000061-72.099976c2.200013 37.400025 32.600037 67.799988 70.000061 70v-11.200012c0-2.5-1.800048-4.599976-4.300048-4.899963-25.599976-3.900025-45.700013-24-49.599976-49.600037-.299988-2.5-2.400024-4.299988-4.900024-4.299988z"/><path d="m1078.5 662.84668c-.599976 0-1-.399964-1-1v-12.299988c0-3.5 2.599976-6.399963 6-6.899963 24.700073-3.700013 44.200073-23.100037 47.900024-47.900025.5-3.400024 3.400025-6 6.900025-6h12.299927c.600097 0 1 .400025 1 1-1.799927 39.700012-33.399903 71.299988-73.099976 73.099976.099976 0 .099976 0 0 0zm59.800049-72.099976c-2.5 0-4.599976 1.799988-4.900025 4.299988-3.900024 25.600037-24 45.700012-49.599975 49.600037-2.5.299987-4.300049 2.399963-4.300049 4.899963v11.200012c37.400024-2.200012 67.800049-32.599975 70-70z"/><path d="m1150.599976 584.146729h-12.299927c-3.5 0-6.400025-2.600037-6.900025-6-3.699951-24.700013-23.099975-44.200013-47.900024-47.900025-3.400024-.5-6-3.400024-6-6.900024v-12.299988c0-.299988.099976-.5.300049-.700012.199951-.200013.5-.299988.699951-.299988 39.599976 1.700012 71.300049 33.400024 73 73 .099976.600037-.299927 1-.900024 1.100037zm-71.099976-72.000062v11.200013c0 2.5 1.800049 4.600036 4.300049 4.900024 25.599975 3.899963 45.699951 24 49.599975 49.599976.300049 2.5 2.400025 4.300049 4.900025 4.300049h11.199951c-2.099976-37.400025-32.599976-67.900025-70-70.000062z"/><path d="m1075.200073 662.946716c-1.200073 0-2.300049 0-3.400024-.100036-.5 0-.900025-.5-.900025-1v-12.299988c0-2.5-1.800048-4.599976-4.300048-4.899963-25.599976-3.900025-45.700013-24-49.599976-49.600037-.299988-2.5-2.400024-4.299988-4.900024-4.299988h-12.299988c-.5 0-1-.400024-1-.900024-.099976-1.099976-.099976-2.199951-.099976-3.399964 0-1.200012 0-2.299987.099976-3.400024 0-.5.5-.899963 1-.899963h12.299988c2.5 0 4.600036-1.800049 4.900024-4.300049 3.899963-25.599976 24-45.700013 49.599976-49.599976 2.5-.299988 4.300048-2.400024 4.300048-4.900024v-12.299988c0-.5.400025-1 .900025-1 2.299927-.099976 4.5-.099976 6.799927 0 .5 0 .900024.5.900024 1v12.299988c0 2.5 1.800049 4.600036 4.300049 4.900024 25.599975 3.899963 45.699951 24 49.599975 49.599976.300049 2.5 2.400025 4.300049 4.900025 4.300049h12.299927c.5 0 1 .399963 1 .899963.100097 1.100037.100097 2.200012.100097 3.400024 0 1.200013 0 2.299988-.100097 3.399964 0 .5-.5.900024-1 .900024h-12.299927c-2.5 0-4.599976 1.799988-4.900025 4.299988-3.900024 25.600037-24 45.700012-49.599975 49.600037-2.5.299987-4.300049 2.399963-4.300049 4.899963v12.299988c0 .5-.400024 1-.900024 1-1.099976 0-2.199952.100036-3.399903.100036zm-2.300049-2.100036c1.5.100036 3.099976.100036 4.699952 0v-11.299988c0-3.5 2.600097-6.399963 6-6.899963 24.700073-3.700013 44.200073-23.100037 47.900024-47.900025.5-3.400024 3.400024-6 6.900024-6h11.300049c0-.799988 0-1.5 0-2.299988 0-.799987 0-1.600036 0-2.299987h-11.400024c-3.5 0-6.400025-2.600037-6.900025-6-3.699951-24.700013-23.099975-44.200013-47.900024-47.900025-3.400024-.5-6-3.400024-6-6.900024v-11.299988c-1.5-.099976-3.099976-.099976-4.699951 0v11.299988c0 3.5-2.599976 6.400024-6 6.900024-24.700073 3.700012-44.200073 23.099976-47.900086 47.900025-.5 3.399963-3.399963 6-6.899963 6h-11.299988v2.299987 2.299988h11.299988c3.5 0 6.399963 2.599976 6.899963 6 3.700013 24.700012 23.100037 44.200012 47.900086 47.900025 3.400024.5 6 3.399963 6 6.899963v11.299988z"/><g fill="#1a1a1a"><path d="m992.577576 346.204285c-6.326844-1.657654-11.32251-3.904114-16.499573-9.071778-7.724915-7.710815-11.289429-16.945007-10.841187-27.697143.562745-13.498047 8.029236-25.028931 20.033875-30.957764 10.513061-5.1922 22.554321-5.300476 32.663086-.266662 7.935486 3.951538 12.83197 10.033203 16.629822 17.973449 5.187988 10.846497 4.248047 24.403198-2.397095 34.576599-4.997437 7.650757-13.486816 13.696045-22.0401 15.694886-4.818604 1.126098-12.723023 1.012756-17.548828-.251587zm11.660766-24.535523v-5.810669l5.620423-9.969421c3.091247-5.483215 5.620483-10.215088 5.620483-10.515381s-1.154541-.545959-2.565674-.545959h-2.565613l-4.200317 8.096435c-2.679382 5.164795-4.335876 7.829773-4.574707 7.360108-.205933-.404969-2.131042-4.04834-4.278015-8.096436l-3.903565-7.360107h-2.873352c-1.580322 0-2.873352.127807-2.873352.284057 0 .156189 2.649659 4.966309 5.888062 10.689209l5.888122 10.405213v5.636779 5.636841h2.408753 2.408752z" stroke="#000"/><path d="m1069.007324 273.616211c0-.31781-3.680053-.846619-5.682861-1.602356-2.9469-1.111938-5.892944-2.632141-7.961304-4.015503-6.910156-4.621826-11.714599-10.88092-14.540161-18.942566-1.345825-3.839599-2.05603-5.202759-2.05603-11.449463 0-6.246765.710205-7.182495 2.05603-11.022033 3.877686-11.063538 11.801392-19.05774 22.768433-22.97107 4.250976-1.516907 5.147583-2.289612 11.560302-2.289612 6.412598 0 7.331788.772705 11.582764 2.289612 14.518555 5.180603 24.017578 17.632569 24.671021 32.868592.454223 10.591308-2.741578 19.49591-10.187989 26.914062-7.55957 7.530884-14.420532 10.699158-24.626831 10.985107-3.38562.09491-6.847412-.622985-7.583374-.76477zm2.385987-25.684692c4.254516-7.149598 3.377563-7.254944 8.20935.985961l3.054199 5.209351 3.121582.01001 3.12146.01001-1.229614-2.007325c-.676269-1.104004-3.07666-4.86615-5.334106-8.360351l-4.10437-6.353089 4.755126-7.43518c2.615357-4.089295 4.755127-7.565979 4.755127-7.725952 0-.159974-1.249389-.218079-2.776367-.12909l-2.776367.161804-3.107178 5.053956c-1.708984 2.779663-3.295654 5.242248-3.525879 5.472473-.230224.230224-1.931396-2.104248-3.780273-5.187744l-3.361816-5.606324h-2.958741-2.958862l1.226807 2.007325c.674804 1.104003 2.87146 4.621276 4.881469 7.816101l3.654541 5.808837-4.852539 7.434144c-2.668823 4.088745-4.992065 7.79779-5.162597 8.242248-.25293.658997.221557.808167 2.570434.808167h2.880616z" stroke="#000"/><path d="m1141.236572 347.192932c-6.698486-.995911-15.58728-5.794617-20.805786-12.874634-3.026855-4.106567-6.221069-10.665893-7.265381-15.670959-2.763183-13.242798 2.635742-27.855286 13.268921-35.913086 19.993775-15.151184 48.094361-6.687744 56.44104 16.999145 1.861817 5.283814 2.98291 13.31427 1.68042 19.168519-1.508179 6.778747-4.866699 12.856445-10.194336 18.158569-5.265747 5.240478-9.894775 7.951355-16.433227 9.623596-4.856079 1.242004-12.032593 1.201538-16.691651.50885zm-.173828-23.059021 1.069214-3.345459 6.503784-.150146 6.503784-.150086.987305 3.361817.987427 3.361755 2.515869.163147c1.824341.118286 2.515869-.033508 2.515869-.552368 0-.393555-2.295776-7.753479-5.101684-16.355347l-5.101685-15.639892h-3.150635-3.150513l-5.208618 15.656982c-2.864624 8.611267-5.319214 15.958008-5.45459 16.32605-.175781.477844.505616.669067 2.384522.669067h2.630615z" stroke="#000"/><path d="m1070.008057 420.61084c-8.124024-1.276245-14.236328-3.962647-20.566651-10.263916-3.761963-3.74469-5.373901-6.192078-7.192138-9.960449-7.600464-15.752625-2.960205-33.081116 10.77539-44.104676 6.35669-5.101562 13.619507-7.592407 22.138306-7.592407 29.933716 0 46.679809 33.838623 28.709473 58.012817-2.796387 3.761719-6.276856 7.451355-10.511353 9.840882-7.040649 3.973083-15.700928 5.269897-23.353027 4.067749zm11.203247-21.383484c3.073608-1.759949 4.529175-4.208435 4.576782-7.698425.044311-3.24646-1.271607-5.853028-3.499512-6.932007l-1.493896-.723511 1.608764-1.541321c1.873047-1.794494 2.804566-4.701904 2.330445-7.274048-.927368-5.032409-3.684815-6.334106-13.45166-6.35028l-7.092408-.01178v16.109741 16.109741l7.359986-.18518c6.651367-.167298 7.581787-.312073 9.661499-1.50293z" stroke="#000"/><path d="m1069.007202 377.188599v-4.889466l3.729981.266846c4.160644.297729 6.249023 1.337097 6.757568 3.363098.947144 3.773682-1.806641 6.143738-7.14209 6.146912l-3.345459.002014z" stroke="#000"/><path d="m1143.847168 315.566956c0-.763733 4.252075-14.101197 4.627197-14.514161.178833-.196899 1.326416 2.82483 2.550171 6.714966 1.223633 3.890198 2.331421 7.350769 2.46167 7.690186.187378.488586-.79187.617126-4.701172.617126-3.257324 0-4.937866-.172912-4.937866-.508117z" stroke="#000" stroke-width=".999998"/><path d="m1069.362183 391.491089v-5.120789h3.615112c4.59668 0 6.581055.936402 7.499756 3.539307.552734 1.565918.544678 2.042297-.059082 3.479797-.976441 2.324951-3.070679 3.222534-7.518189 3.222534h-3.537597z" stroke="#000" stroke-width=".999998"/><path d="m1073.223267 653.394226c-.290528-8.926575-.825318-9.726746-10.13208-11.862976-21.074708-4.83728-37.20459-20.142151-42.613404-41.346008-.550049-2.15625-1.087463-5.195435-1.087463-5.879151s-1.006409-2.249572-2.23645-3.479614l-2.348633-1.948486-6.860169-.287903h-6.972412v-1.973328-1.973327h5.941101c6.603394 0 9.93689-1.001526 11.202088-3.365662.442627-.827026 1.501281-3.93512 2.000244-6.974243 2.677612-16.309632 14.912109-30.686585 29.483642-37.964295 4.715699-2.355224 11.366578-4.654419 15.50586-5.360351 6.618774-1.128784 8.222168-3.615112 8.222168-12.749512v-5.94104h1.973388 1.973267v6.89624c0 6.616089.073486 6.974732 1.80896 8.82898 1.462524 1.562805 3.90686 1.704712 9.491333 3.065491 20.408814 4.973083 35.284668 20.460449 40.716675 40.148498.788086 2.856567 1.764648 6.368836 2.170044 7.805115 1.227905 4.350159 3.853882 5.610779 11.687622 5.610779h6.480469v1.973327 1.973328h-6.610352c-6.955933 0-9.890259.841308-10.81189 3.100098-.263794.646484-1.272949 4.607788-2.135742 8.033325-5.38977 21.399231-21.276245 36.720398-42.13501 41.531738-9.949951 2.295044-10.662109 3.146668-10.662109 12.750671v6.281495h-1.913452-1.913452z" stroke="#1a1a1a"/><path d="m1001.757935 577.243469c1.752807-15.267761 8.923645-31.226135 20.421447-42.952209 11.953553-12.190796 27.521057-19.179993 45.721741-21.640564l2.795532-.37793v6.183716c0 7.932861-.123901 8.868652-6.840088 10.244995-22.301269 4.570252-41.813171 22.088928-46.1026 44.18866-1.760681 9.07135-2.356933 9.122192-11.114135 9.122192h-5.429383z" stroke="#4d4d4d"/><path d="m1060.830078 658.994873c-32.219116-6.914978-55.742065-32.911194-59.391174-65.635925l-.238404-2.137757h6.361878c6.887512 0 6.852966.019104 7.746155 1.019104 1.266113 1.417542 1.512085 3.833619 2.429809 7.895997 4.793885 21.221557 24.190491 39.138366 46.586731 43.982055 6.898804 1.492066 6.371582 2.731812 6.371582 10.285767v5.883301l-2.137695-.046326c-1.175781-.025452-4.653809-.586243-7.728882-1.246216z" stroke="#4d4d4d"/><path d="m1079.640015 653.799927c-.289551-7.257324.977905-8.251526 5.326538-8.997132 4.850464-.831604 11.111328-2.922424 16.31665-5.448913 15.802979-7.670227 27.124512-21.987183 31.557495-39.906983.977417-3.951294 1.569824-7.240905 2.248535-7.737182.717286-.524536 3.903077-.488526 7.849976-.488526h6.213745l-.431641 3.782166c-3.78833 33.197205-31.779785 61.263855-64.828735 65.00293l-3.98706.451049z" stroke="#4d4d4d"/><path d="m1134.961548 580.58844c-1.175903-1.072693-1.306763-2.964417-2.111939-6.726685-4.37915-20.460022-18.959716-36.617126-39.289428-43.537353-2.438721-.830139-5.824097-1.717835-7.52295-1.972595-1.882324-.282288-3.855957-.562317-4.783081-1.48938-1.376098-1.376099-1.348632-2.612366-1.348632-8.254029v-6.237365l2.466674.331238c18.994996 2.551086 32.677735 9.211059 45.444825 22.120056 10.431396 10.547302 17.440673 23.809875 20.160278 38.145874.546997 2.883545.994507 6.098144.994507 7.143493v1.900635h-5.883301c-5.182007 0-6.697998-.1203-8.126953-1.423889z" stroke="#4d4d4d"/><path d="m969.920654 181.779907c-.533264-.589294-.625-1.697082-.625-7.547058v-6.856506l-1.101135-1.233277-1.101135-1.233337-7.112793-.106445c-4.068054-.060913-6.476807.46167-7.573425-.164063-1.353333-.772156-.861145-3.065735-.861145-7.629822 0-4.682678.125549-6.289184.535339-6.850341.490112-.671204 1.103271-.741394 7.269775-.832215 3.70398-.054565 7.122132-.186584 7.595948-.293396.473754-.106811 1.195373-.741943 1.603576-1.411438.662171-1.086059.74231-1.921936.743591-7.75653.000794-3.782654.166199-6.847291.392334-7.269837.364808-.681579.856324-.730469 7.350953-.730469s6.986084.04889 7.350891.730469c.226135.422546.39154 3.487183.392395 7.269837.000976 5.834594.08136 6.670471.74353 7.75653.408203.669495 1.129883 1.304627 1.603638 1.411438.473816.106812 3.891967.238831 7.595947.293396 6.166504.090821 6.779602.161011 7.269775.832215.409729.561157.535279 2.167663.535279 6.850341 0 4.821839.736938 7.189331-.884034 7.880982-1.156616.49353-3.76593-.143799-7.550476-.087097l-7.112793.106445-1.101135 1.233337-1.101196 1.233338v6.922058c0 6.226379-.069397 6.984863-.690613 7.547058-.585693.530029-1.667114.625-7.116821.625-5.746033 0-6.492371-.073059-7.05127-.690613z" stroke="#000" stroke-width=".999999"/><path d="m1016.198608 777.189453v-5.257385h5.307496 5.207397v5.257385 5.257446h-5.207397-5.307496z" stroke="#4d4d4d" stroke-width="1.00067"/><path d="m1015.625854 812.360474c-14.845336-2.336182-27.221496-12.343018-32.436462-26.226685-7.522888-20.028259 2.332825-43.03125 22.027588-51.412109 6.071716-2.583802 7.956909-3.520142 15.698059-3.490479 6.509277.025025 7.911133.60376 11.258789 1.6203 14.443482 4.385926 24.641846 14.874939 28.58667 29.401307.787109 2.898559 1.106079 5.241577 1.098267 10.742004-.007935 5.447083-.33667 6.154358-1.114258 9.048035-4.752808 17.686157-20.042725 29.951049-38.075195 30.541748-2.558106.083862-5.727662-.01709-7.043458-.224121zm12.019166-11.949585c11.939941-2.628418 21.266113-13.045899 22.490112-25.122193 2.182861-21.535339-18.131104-37.702758-38.521057-30.65802-4.177124 1.443177-6.99054 3.28711-10.817932 7.090027-2.820984 2.802979-3.81836 4.1427-5.325684 7.153687-2.559387 5.11261-3.298401 8.689148-3.023193 14.630615.315185 6.80603 2.155822 11.734009 6.307495 16.887329 6.758484 8.38916 18.226196 12.365967 28.890259 10.018555z" stroke="#4d4d4d"/></g><path d="m897.772522 765.058044c-1.327454-.809448-2.290039-.921814-2.473694-5.31311-.181457-4.338623.062012-13.486023.062012-32.629944 0-32.805176-.469849-35.196777.630066-36.256531.066345-.064025.103149-.146301.160949-.219726 1.141663-1.451416 2.688904-2.126892 4.87201-2.126892h1.912719v38.636413 38.636353l-1.988647-.002014c-1.288879-.000733-2.40625-.256104-3.175476-.725159z" fill="#ff5f55" fill-opacity=".956863" stroke="#000"/><path d="m899.176514 362.856934c-.505555-.095093-1.323914-.438111-1.818604-.762207-.778992-.510437-1.538269-.766968-1.82843-2.703064-.483521-3.225892-.16864-11.381592-.16864-35.101807 0-19.262878-.522217-28.346314-.380676-32.532593.092224-2.726013.778747-3.234253 1.000244-3.609131.933716-1.580627 2.42865-2.28778 4.836609-2.28778h2.119629v38.636352 38.636353l-1.420472-.051636c-.78125-.028381-1.834106-.129395-2.33966-.224487z" fill="#ff5f55" fill-opacity=".956863" stroke="#000"/><path d="m1227.615112 177.19928c-10.087402-20.551636-21.903808-37.241822-38.156738-53.894409-34.816406-35.672547-78.669678-57.010193-129.646728-63.081971-5.062623-.603027-13.076783-.791992-40.92157-.96521l-34.625977-.215332v-1.407104c0-.978516.013123-2.965088 1.401672-3.674316l2.123536-1.128907 30.37799.224976c16.92743.125366 33.549378.217651 37.004334.484619 50.752685 3.921631 97.064697 24.581787 133.314087 59.472351 17.581421 16.922241 31.482666 35.738953 42.78186 57.909485 4.283692 8.405151 4.879761 10.055359 4.253662 11.776794-.416504 1.145142-2.661987 4.171509-3.177246 4.129334-.144287-.01178-2.248291-4.576477-4.728882-9.63031z" fill-opacity=".956863" stroke="#4d4d4d"/><path d="m896.381836 954.519653c-.558777-.549926-1.707398-1.183349-1.556458-5.039795.262391-6.701904-.215515-27.162353-.138671-79.124267l.296447-82.564575 2.574951-6.446656 7.904664-15.052734.102783-39.425781-.36554-39.619141-7.109924-13.234314-2.910217-7.693298-.381836-7.290283.08789-48.0271-.103332-22.132019.096618-34.134216.055298-10.476319.011658-10.492248-.06958-8.6026.016113-25.574036-.005005-19.351501-.149658-27.483948.074585-21.585755-.017212-11.014587.104187-19.605469-.048218-10.227173.546143-5.684692 1.917053-5.785828 2.962403-5.522705 5.288391-9.81903v-39.482728l-.365357-39.580139-5.28125-9.751526-2.683471-5.330444-1.816956-5.136658-.736633-7.597168.237121-13.317382-.123779-12.247681-.01355-11.083679-.037414-10.847779.0307-9.870422.01001-6.53595.018005-2.90393.068177-17.391968.030578-21.510315-.000976-10.808289-.054199-8.443664.016967-5.125488-.222107-5.939759 2.20044-3.055603 3.158325-1.102295 3.217834.058899c1.415467.025879 2.72522.056763 3.940064.240479.863281.130554 1.836304.127136 2.585083.398376.992981.35968 1.67804 1.018555 2.035706 1.315369.208251.172851 1.214233 1.722595 1.325622 4.747436.075745 2.056397-.020142 4.681702-.009949 8.332032.01178 4.091247.083008 9.689148.036072 16.361511-.070312 10.012512-.017578 23.117309-.081604 40.379883-.048767 13.18103.195862 28.672729.144104 46.986694-.177551 62.76593-.247681 157.986816-.236206 300.975769l.033386 416.245606-1.262878 1.822753c-1.803223 2.602784-12.607849 2.902466-15.345703.20813z" fill="#1a1a1a" stroke="#000"/><path d="m915.420959 515.835449v-392.367676h4.311707 4.311707v392.367676 392.367676h-4.311707-4.311707z" fill="#1a1a1a" stroke="#000"/><path d="m1061.450928 771.813721c0 22.240967-18.028076 40.270996-40.266968 40.270996-22.238831 0-40.266968-18.030029-40.266968-40.270996 0-22.241089 18.028137-40.270996 40.266968-40.270996 22.238892 0 40.266968 18.029907 40.266968 40.270996z" fill="#999595" stroke="#000" stroke-linecap="round" stroke-linejoin="round" stroke-width="2.39278"/><path d="m1055.305054 772.135681c0 19.046204-15.247925 34.486023-34.057068 34.486023s-34.057007-15.439819-34.057007-34.486023c0-19.046081 15.247864-34.485962 34.057007-34.485962s34.057068 15.439881 34.057068 34.485962z" fill="#3a3d40" stroke="#000" stroke-linecap="round" stroke-linejoin="round" stroke-width="2.72654"/><path d="m1021.299988 745.046692-26.770142 26.416382h7.648621v22.527649h38.516235v-22.527649h7.238892zm7.785217 40.898376h-15.160644v-14.481994h15.160644z" fill="#fff"/><path d="m347.069092 522.339355h13.190063l.037201-8.255249h14.106781c3.694 0 4.867096 3.292481 4.867096 8.260498v75.702027c0 3.532348-3.408539 6.310913-6.44046 6.310913h-9.522583c-2.594421 0-2.744354-2.750366-3.011688-5.111572v-5.025025h-13.00531z" fill="#1a1a1a" stroke="#000" stroke-width="2.30124"/><path d="m360.267548 594.069336v-71.187622" fill="#4d4d4d" stroke="#000" stroke-width="2.30124"/><path d="m288.749817 477.29541v15.946045h43.588806v-16.230835c0-2.098266-1.872589-3.045166-3.559631-3.488281-12.173035-3.196045-25.276642-3.034058-36.832672 0-1.8219.478393-3.196503 1.67688-3.196503 3.773071z" stroke="#000" stroke-width="2.30124"/><path d="m246.716476 621.682129c-1.811676 5.309326-14.315979 15.231689-26.803985 17.54248 0 3.020874 2.17456 7.208252 6.678024 7.208252h42.945343c9.044403 0 6.768494 24.000122-7.882721 24.000122h-14.822754c-30.795791 10.324463-58.299057 10.535157-88.356277 0h-15.616654c-13.605743 0-16.406852-23.781128-7.810653-23.781128h42.125869c6.108933 0 8.968842-3.485595 8.610352-7.024414-10.964401-3.704101-20.754562-8.557983-26.281586-17.585205v-3.352661h87.25177z" fill="#1a1a1a" stroke="#000" stroke-width="2.09975"/><path d="m242.174622 618.400513v6.339966c0 2.64685 2.565124 3.687622 5.856262 3.687622 17.73053.984497 39.271759.926757 57.431457 0 3.051667 0 6.044312-1.826905 6.010376-3.784668v-7.730957h-69.298095z" fill="#1a1a1a" stroke="#000" stroke-width="1.84474"/><path d="m226.084427 646.33728h-45.041779" fill="none" stroke="#000" stroke-width="2.09975"/><path d="m323.50058 612.927124v11.145996c0 .959961-.737 2.033814-1.311188 2.033814h-23.025757c-.722778 0-1.599823-1.118897-1.599823-2.481324v-10.779663z" fill="#1a1a1a" stroke="#000" stroke-width="1.4781"/><path d="m220.265381 639.072021h-35.763504" fill="none" stroke="#000" stroke-width="2.09975"/><path d="m96.695229 618.403931v6.35437c0 2.652832 2.56501 3.696045 5.855972 3.696045 17.730728.986694 39.271721.928833 57.431679 0 3.051666 0 6.044296-1.831055 6.010131-3.793335v-7.748535h-69.297782z" fill="#1a1a1a" stroke="#000" stroke-width="1.84684"/><path d="m59.14151 620.653442c-8.529659 0-24.99089-16.610717-24.99089-25.556274v-58.658569c4.574428-17.005005 13.355331-35.478272 41.845367-41.004029 4.975349 0 7.55529-4.593628 7.55529-7.403564 26.969994-35.049561 56.254723-53.087036 86.305901-65.492676h63.639679c27.373077 12.026367 42.634491 29.986816 54.631286 49.546631v10.820557c0 4.466919 3.775635 9.11206 8.717774 9.11206h52.887787v128.707276z" fill="#00bbdb" stroke="#000" stroke-linecap="round" stroke-linejoin="round" stroke-width="2.30124"/><path d="m68.157799 516.578369h227.390938c-.118561-46.394775-23.401947-94.427734-68.1792-94.427734l-63.608535.74646c-62.273591 11.133056-75.072052 54.96228-95.603203 93.681274z" fill="#1a1a1a" stroke="#000" stroke-width="2.30124"/><path d="m49.494419 547.183472h247.958737v27.992431c0 9.455689-12.316681 23.513672-23.996155 23.513672h-207.965348c-12.696304 0-22.091522-12.022949-22.091522-21.647461 0-11.594726-1.020122-29.858642 6.094288-29.858642z" fill="#1a1a1a" stroke="#000" stroke-width="2.30124"/><path d="m184.491791 482.439209v-1.879517l5.575882-6.749023c3.066772-3.711914 5.575882-6.758301 5.575882-6.769653 0-.011353-2.228272-.020508-4.951462-.020508h-4.951462v-1.750855-1.750976h7.771607 7.77182v1.614136 1.614257l-5.837891 7.045533-5.837631 7.045532 6.052917.011474 6.053162.011353v1.729736 1.729615h-8.611298-8.611526v-1.879517z" fill="#fff" stroke="#fff" stroke-linecap="round" stroke-linejoin="round" stroke-width=".042622"/><path d="m204.525253 473.970825v-10.359497h2.625473 2.625458v8.60791 8.60791h6.582398 6.582428v1.751587 1.751465h-9.207886-9.207871z" fill="#fff" stroke="#fff" stroke-linecap="round" stroke-linejoin="round" stroke-width=".033511"/><path d="m195.426117 573.068115v-10.42334h2.458359 2.458358v8.661133 8.660889h6.163498 6.163453v1.762451 1.762329h-8.621842-8.621826z" fill="#fff" stroke="#fff" stroke-linecap="round" stroke-linejoin="round" stroke-width=".032527"/><path d="m1333.832886 521.339355h-13.190064l-.037231-8.255249h-14.10669c-3.694091 0-4.867065 3.292481-4.867065 8.260498v75.702027c0 3.532348 3.408447 6.310913 6.44043 6.310913h9.522583c2.59436 0 2.744262-2.750366 3.011718-5.111572v-5.025025h13.005249z" fill="#1a1a1a" stroke="#000" stroke-width="2.30124"/><path d="m1320.634521 593.069336v-71.187622" fill="#1a1a1a" stroke="#000" stroke-width="2.30124"/><path d="m1392.152222 476.29541v15.946045h-43.588868v-16.230835c0-2.098266 1.872681-3.045166 3.559693-3.488281 12.172974-3.196045 25.276611-3.034058 36.832641 0 1.8219.478393 3.196534 1.67688 3.196534 3.773071z" stroke="#000" stroke-width="2.30124"/><path d="m1434.185547 620.844482c1.811645 5.597413 14.315918 16.058228 26.803955 18.494263 0 3.184815-2.174561 7.599365-6.677979 7.599365h-42.945312c-9.044434 0-6.768555 25.302246 7.88269 25.302246h14.822754c30.795777 10.884644 58.299073 11.106812 88.356201 0h15.6167c13.605713 0 16.40686-25.071289 7.810669-25.071289h-42.125855c-6.109009 0-8.968872-3.674804-8.610351-7.405639 10.964355-3.90503 20.754516-9.022217 26.281616-18.539307v-3.534546h-87.251831z" fill="#1a1a1a" stroke="#000" stroke-width="2.15573"/><path d="m1438.727417 617.61377v7.248779c0 3.026123-2.565186 4.216186-5.856323 4.216186-17.730469 1.125489-39.271729 1.059571-57.431397 0-3.051635 0-6.044311-2.088867-6.010376-4.327148v-8.839111h69.298096z" fill="#1a1a1a" stroke="#000" stroke-width="1.97231"/><path d="m1454.817627 646.837402h45.041748" fill="none" stroke="#000" stroke-width="2.15573"/><path d="m1357.714233 612.246582v12.015991c0 1.035034 1.443726 2.192627 2.56836 2.192627h45.102661c1.415771 0 3.133789-1.206177 3.133789-2.675049v-11.621093z" fill="#1a1a1a" stroke="#000" stroke-width="2.1477"/><path d="m1460.636597 639.177856h35.763549" fill="none" stroke="#000" stroke-width="2.15573"/><path d="m1584.206787 617.600586v7.192749c0 3.002808-2.565063 4.183594-5.855957 4.183594-17.730713 1.116821-39.271728 1.051391-57.431641 0-3.051757 0-6.044311-2.072632-6.010131-4.293701v-8.770752h69.297729z" fill="#1a1a1a" stroke="#000" stroke-width="1.96467"/><path d="m1511.456909 617.634888v7.338501c0 3.06372-2.565063 4.268432-5.855957 4.268432-17.730835 1.139527-39.27185 1.072754-57.431763 0-3.051635 0-6.044311-2.114624-6.010131-4.380737v-8.948608h69.297851z" fill="#1a1a1a" stroke="#000" stroke-width="1.9845"/><path d="m1621.760498 619.653442c8.529663 0 24.990845-16.610717 24.990845-25.556274v-58.658569c-4.574341-17.005005-13.355225-35.478272-41.845337-41.004029-4.975342 0-7.555298-4.593628-7.555298-7.403564-26.969971-35.049561-56.254761-53.087036-86.305908-65.492676h-63.639649c-27.373047 12.026367-42.634521 29.986816-54.631347 49.546631v10.820557c0 4.466919-3.775513 9.11206-8.717774 9.11206h-52.887695v128.707276z" fill="#ff5f53" stroke="#000" stroke-linecap="round" stroke-linejoin="round" stroke-width="2.30124"/><path d="m1612.744263 515.578369h-227.390992c.118531-46.394775 23.401978-94.427734 68.1792-94.427734l63.60852.74646c62.27356 11.133056 75.072022 54.96228 95.603272 93.681274z" fill="#1a1a1a" stroke="#000" stroke-width="2.30124"/><path d="m1631.407471 546.183472h-247.958618v27.992431c0 9.455689 12.31665 23.513672 23.996093 23.513672h207.965332c12.696289 0 22.091553-12.022949 22.091553-21.647461 0-11.594726 1.020142-29.858642-6.09436-29.858642z" fill="#1a1a1a" stroke="#000" stroke-width="2.30124"/><path d="m1468.304321 572.068115v-10.421142l4.83313.00061c2.658081.000244 5.220703.020386 5.694214.042358 2.064087.099854 3.36853.382203 4.263062.92273 1.373901.830078 2.289917 2.29541 2.52185 4.034058.069824.530639.027832 1.703369-.081299 2.193847-.365722 1.647705-1.321899 2.879028-2.820923 3.632935-.574462.28894-1.45227.576416-2.138061.700317-.284546.051148-.516724.103638-.516113.116089.000732.013672.153442.113159.338745.223022.596557.35376 1.218628.836426 1.750366 1.358277.863159.847046 1.408447 1.615112 3.702026 5.213257.77649 1.218261 1.440186 2.25769 1.47461 2.309936l.062622.094849h-2.53772-2.537842l-1.694702-2.478638c-3.189331-4.664184-3.609009-5.210815-4.38562-5.712036-.598145-.386108-1.124512-.491577-2.643066-.529663l-1.022339-.025757v4.373047 4.372925h-2.131348-2.131348v-10.421265zm10.528321-1.702514c.90686-.116089 1.365966-.317383 1.807373-.792603.445678-.479614.624511-.997192.624511-1.80835 0-1.123046-.423584-1.862182-1.302368-2.273071-.682495-.319214-.57251-.310547-4.17688-.331177l-3.218383-.01831v2.665771 2.66565l2.874145-.020508c2.267944-.016113 2.983032-.034546 3.391602-.086914z" fill="#fff" stroke="#fff" stroke-linecap="round" stroke-linejoin="round" stroke-width=".042622"/><path d="m1477.389404 472.916016v-10.40271l5.500244.018188c5.865601.018189 5.995606.023438 7.212525.236817.727661.127807 1.206299.274047 1.732666.529785.561157.272583.929199.536865 1.34436.965088.686524.708252 1.171265 1.612426 1.423218 2.655151.104614.436401.113892.546265.116211 1.401733.000732.725342-.023315 1.008301-.074219 1.294556-.493164 2.372681-2.157226 3.863403-4.920532 4.408691-.520508.102662-.580078.122681-.508911.173096.043945.031128.277954.183838.519287.338989 1.265381.814087 2.048828 1.631226 3.24353 3.383301.435181.638184 3.389893 5.242676 3.432007 5.348023.023315.042358-.490723.051025-2.51123.042114l-2.532593-.011353-1.89624-2.766357c-2.700928-3.939575-3.004273-4.356323-3.577759-4.912476-.791138-.766967-1.359497-.942627-3.17334-.980346l-1.065552-.022705v4.351196 4.351074h-2.131347-2.131348v-10.40271zm10.290406-1.663086c.700195-.075806 1.025268-.153687 1.404663-.336914.609497-.294556 1.036621-.843018 1.203003-1.545655.090698-.379394.088378-1.172851-.001954-1.514648-.275268-1.037232-1.09729-1.677124-2.304321-1.793701-.225464-.022827-1.741211-.039917-3.36914-.040528l-2.960206-.001587v2.663086 2.662964l2.787842-.022705c1.660767-.013794 2.970825-.041992 3.239991-.071167z" fill="#fff" stroke="#fff" stroke-linecap="round" stroke-linejoin="round" stroke-width=".042622"/><path d="m1457.367798 481.439209v-1.879517l5.575928-6.749023c3.066772-3.711914 5.575805-6.758301 5.575805-6.769653 0-.011353-2.228271-.020508-4.951416-.020508h-4.951416v-1.750855-1.750976h7.771607 7.771728v1.614136 1.614257l-5.83789 7.045533-5.837525 7.045532 6.052857.011474 6.053222.011353v1.729736 1.729615h-8.611328-8.611572v-1.879517z" fill="#fff" stroke="#fff" stroke-linecap="round" stroke-linejoin="round" stroke-width=".042622"/><path d="m1377.213257 620.036133v6.103882h9.912964v-6.380982z" fill="none" stroke="#000"/></svg>