<svg enable-background="new 0 0 1050 1050.5" viewBox="0 0 1050 1050.5" xmlns="http://www.w3.org/2000/svg"><path d="m766 850.5c34 28.2 27.6 35.9 68.5 108.5 36.7 74.7 64.4 104.4 125.1 84.1 95.3-57.9 59.3-145.3 43.6-275.2-10-60.6-35.6-190.3-35.6-190.3z" fill="#20221f"/><path d="m82.3 577.6s-25.6 129.7-35.6 190.3c-15.7 129.9-51.7 217.2 43.6 275.1 60.8 20.3 88.4-9.4 125.1-84.1 40.9-72.7 34.5-80.3 68.5-108.5z" fill="#20221f"/><path d="m676.3 378.4c10.1-4.3 39.7-22.5 58.7-19.7 59.5.9 166.7 17.7 172.6 81.2" fill="#3b3b3b"/><path d="m142.4 439.9c5.9-63.4 113-80.2 172.6-81.2 19-2.8 48.6 15.4 58.7 19.7" fill="#3b3b3b"/><path d="m766 850.5c35.5-30.8 68.5-74.7 96-113.5 26.9-36.3 94.7-136.7 105.6-159.3 0-2.4-6.3-30.1-12.8-56.2-35.7-159.6-252.6-143.4-429.8-143.4-177.4 0-394.1-16.2-429.9 143.3-6.5 26-12.8 53.8-12.8 56.2 10.9 22.6 78.8 123 105.6 159.3 27.5 38.8 60.5 82.8 96 113.5" fill="#121212"/><path d="m466.2 683.5h-40c-2.8 0-5-2.2-5-5v-40c0-2.8-2.2-5-5-5h-30c-2.8 0-5 2.2-5 5v40c0 2.8-2.2 5-5 5h-40c-2.8 0-5 2.2-5 5v30c0 2.8 2.2 5 5 5h40c2.8 0 5 2.2 5 5v40c0 2.8 2.2 5 5 5h30c2.8 0 5-2.2 5-5v-40c0-2.8 2.2-5 5-5h40c2.8 0 5-2.2 5-5v-30c0-2.7-2.2-5-5-5z" fill="#444542"/><g fill="#fff"><path d="m393.7 746h15l-7.5 15z"/><path d="m358.7 696v15l-15-7.5z"/><path d="m408.7 661h-15l7.5-15z"/><path d="m443.7 711v-15l15 7.5z"/></g><circle cx="650.6" cy="703.5" fill="#20221f" r="55"/><circle cx="650.6" cy="703.5" fill="#444542" r="45" stroke="#fff" stroke-miterlimit="10" stroke-width="2"/><circle cx="240.2" cy="564.8" fill="#20221f" r="55"/><circle cx="240.2" cy="564.8" fill="#444542" r="45" stroke="#fff" stroke-miterlimit="10" stroke-width="2"/><circle cx="401" cy="489.3" fill="#454644" r="22.5"/><path d="m386.2 491.8v-5h30v5" fill="#fff"/><circle cx="650.4" cy="489.6" fill="#454644" r="22.5"/><path d="m665.6 487.1h-12.5v-12.7h-5v12.7h-12.5v5h12.5v12.3h5v-12.3h12.5z" fill="#fff"/><circle cx="605.4" cy="564.8" fill="#454644" r="22.5"/><path d="m605.4 549.8-15 15h5v15h20v-15h5zm5 25h-10v-10h10z" fill="#fff"/><path d="m468.6 586.5h-30c-2.8 0-5-2.2-5-5v-29.5c0-2.8 2.2-5 5-5h30c2.8 0 5 2.2 5 5v29.5c0 2.7-2.2 5-5 5z" fill="#454644"/><circle cx="453.6" cy="566.7" fill="#454644" r="15" stroke="#fff" stroke-miterlimit="10" stroke-width="2"/><circle cx="863.9" cy="564.8" fill="#3b3c3a" r="35"/><text fill="#fff" font-family="'Helvetica-Bold'" font-size="40" transform="translate(849.4224 578.6607)">A</text><circle cx="793.9" cy="494.8" fill="#3b3c3a" r="35"/><text fill="#fff" font-family="'Helvetica-Bold'" font-size="40" transform="translate(780.5266 508.6604)">X</text><circle cx="723.9" cy="564.8" fill="#3b3c3a" r="35"/><text fill="#fff" font-family="'Helvetica-Bold'" font-size="40" transform="translate(710.5263 578.661)">Y</text><circle cx="793.9" cy="634.8" fill="#3b3c3a" r="35"/><text fill="#fff" font-family="'Helvetica-Bold'" font-size="40" transform="translate(780.9706 648.6605)">B</text><path d="m219.2 78.5c-12.5-17.6-25.9-42.3-45.6-58.6-20.1-16.6-61.5-24.6-86.5-14.1-13.9 5.8-33.4 33.1-42.7 52.8-10.5 22.3-14 51.3-12.4 82.8 1.2 25.1 5.3 51.7 14.2 78.6 0 0 14.3 53.8 42.8 80.8 11.2 10.6 35 26.6 35 26.6l116-217.5s-15.4-23.7-20.8-31.4z" fill="#20221f"/><path d="m828.6 78.5c12.5-17.6 25.9-42.3 45.6-58.6 20.1-16.6 61.4-24.5 86.5-14.1 13.9 5.8 33.4 33.1 42.7 52.8 10.5 22.3 13.9 51.3 12.4 82.8-1.2 25.1-5.3 51.7-14.2 78.6 0 0-14.3 53.8-42.8 80.8-11.2 10.6-35 26.6-35 26.6l-116-217.5s15.4-23.7 20.8-31.4z" fill="#20221f"/><path d="m866 122.2c66.3 18.7 85.1 128.8 69 186-2.5 54.2-148.9 15.3-265.1 31.2-41.1 1.7-91.8 2.4-145.9 2.3-54.1 0-104.8-.6-145.9-2.3-116.2-15.9-262.6 23.1-265.1-31.2-16.1-57.1 2.6-167.3 69-186l60.5-18.8 38.9-1.9c40.2.1 142.8 0 242.7 0s202.4.1 242.7 0l38.9 1.9z" fill="#0d0d0a"/><path d="m145.9 239.2c15.2-97.4 38.1-147.2 141.7-137 8.2 16.4 43.3 83 50.6 105.7-57.6 19.3-133.5 17.7-192.3 31.3z" fill="#3b3b3b"/><text fill="#fff" font-family="'Helvetica-Bold'" font-size="40" transform="matrix(1.0139 0 0 1 218.3906 179.3992)">ZL</text><path d="m716.2 207.9c7.4-22.7 42.5-89.3 50.6-105.7 103.7-10.2 126.5 39.6 141.7 137-58.7-13.6-134.7-12-192.3-31.3z" fill="#3b3b3b"/><text fill="#fff" font-family="'Helvetica-Bold'" font-size="40" transform="matrix(1.0139 0 0 1 784.2356 179.3992)">ZR</text><path d="m664 318.5c7-10.1 27.8-78.4 45.4-78.7 331.4 3.9 187.7 94.2-45.4 78.7z" fill="#3b3b3b"/><text fill="#fff" font-family="'Helvetica-Bold'" font-size="40" transform="translate(769.6461 292.8947)">R</text><path d="m340.6 238.6c17.6.3 38.4 68.6 45.4 78.7-233.1 15.5-376.8-74.7-45.4-78.7z" fill="#3b3b3b"/><text fill="#fff" font-family="'Helvetica-Bold'" font-size="40" transform="translate(253.7327 291.7279)">L</text></svg>