<svg height="1000" viewBox="0 0 1200 1000" width="1200" xmlns="http://www.w3.org/2000/svg"><g fill="#ff5f55" opacity=".1"><path d="m417.900024 233.932434v79.5h-4.200012c-3.299988 0-6-2.699951-6-6v-67.599976c0-3.299987 2.700012-6 6-6h4.200012z"/><path d="m417.900024 636.632446v79.5h-4.200012c-3.299988 0-6-2.699951-6-6v-67.599975c0-3.300049 2.700012-6 6-6h4.200012z"/><path d="m749 134.932434-3.400024 3.400024c-33.199952-78-109.799988-128.700012-194.699952-128.700012h-54.200012v-2.599975c0-3.300049 2.700012-6 6-6h51.200012c84.799988 0 161.699952 49.799987 196.399964 127.199951 1 2.300049.5 4.900024-1.299988 6.700012z"/><path d="m499.5 94.532471v-11.700013c0-1.600036-1.299988-3-3-3h-11.700012c-1.599976 0-3 1.299988-3 3v11.700013c0 1.599975-1.299988 3-3 3h-11.700012c-1.599976 0-3 1.299987-3 3v11.699951c0 1.600036 1.300048 3 3 3h11.700012c1.600036 0 3 1.300049 3 3v11.700012c0 1.600037 1.299988 3 3 3h11.700012c1.599976 0 3-1.299988 3-3v-11.700012c0-1.599976 1.299988-3 3-3h11.700012c1.599976 0 3-1.299988 3-3v-11.699951c0-1.600037-1.299988-3-3-3h-11.700012c-1.700012 0-3-1.400025-3-3z"/><path d="m626.400024 333.932434c0 20.710693-16.789367 37.5-37.5 37.5-20.710693 0-37.5-16.789307-37.5-37.5 0-20.710632 16.789307-37.5 37.5-37.5 20.710633 0 37.5 16.789368 37.5 37.5z"/><path d="m626.400024 187.132446c0 20.710694-16.789367 37.5-37.5 37.5-20.710693 0-37.5-16.789306-37.5-37.5 0-20.710693 16.789307-37.5 37.5-37.5 20.710633 0 37.5 16.789307 37.5 37.5z"/><path d="m699.799988 260.532471c0 20.710693-16.789307 37.5-37.5 37.5-20.710694 0-37.5-16.789307-37.5-37.5 0-20.710694 16.789306-37.5 37.5-37.5 20.710693 0 37.5 16.789306 37.5 37.5z"/><path d="m553 260.532471c0 20.710693-16.789307 37.5-37.5 37.5s-37.5-16.789307-37.5-37.5c0-20.710694 16.789307-37.5 37.5-37.5s37.5 16.789306 37.5 37.5z"/><path d="m562.900024 721.332397c0 15.408814-12.491272 27.900025-27.900024 27.900025s-27.900024-12.491211-27.900024-27.900025c0-15.408691 12.491272-27.899902 27.900024-27.899902s27.900024 12.491211 27.900024 27.899902z"/><path d="m585.599976 460.332458v12.299988c0 3-2.199952 5.5-5.199952 5.900025-25.200012 3.700012-45 23.5-48.700012 48.699951-.400024 2.900024-2.900024 5.099975-5.900024 5.200073h-12.299988c1.700012-39.100098 33-70.400024 72.099976-72.100037z"/><path d="m585.599976 598.832397v12.300049c-39.099976-1.699951-70.299988-33-72.099976-72h12.299988c3 0 5.5 2.199951 5.900024 5.199951 3.700012 25.200074 23.5 45 48.700012 48.700074 3 .299926 5.199952 2.799926 5.199952 5.799926z"/><path d="m664.299988 539.032471c-1.700012 39.099975-33 70.299926-72.099976 72v-12.300049c0-3 2.200012-5.5 5.200012-5.900025 25.199952-3.699951 45-23.5 48.699952-48.699951.400024-2.900024 2.900024-5.099975 5.900024-5.199951z"/><path d="m664.299988 532.432495h-12.299988c-3 0-5.5-2.200073-5.900024-5.200073-3.699952-25.199951-23.5-44.999939-48.699952-48.699951-2.900024-.400025-5.100036-2.900025-5.200012-5.900025v-12.299988c39.099976 1.700013 70.399964 32.999939 72.099976 72.100037z"/><path d="m664.400024 535.732422c0 1.099975 0 2.200073-.100036 3.300049h-12.299988c-3 0-5.5 2.199951-5.900024 5.199951-3.699952 25.200073-23.5 45-48.699952 48.700073-2.900024.399902-5.100036 2.899902-5.200012 5.899902v12.300049c-1.100036.099976-2.200012.099976-3.299988.099976-1.100036 0-2.200012 0-3.300048-.099976v-12.300049c0-3-2.199952-5.5-5.199952-5.899902-25.200012-3.700073-45-23.5-48.700012-48.700073-.400024-2.900025-2.900024-5.099976-5.900024-5.199951h-12.299988c-.099976-1.099976-.099976-2.200074-.099976-3.300049 0-1.099976 0-2.199951.099976-3.299927h12.299988c3 0 5.5-2.200073 5.900024-5.200073 3.700012-25.199951 23.5-44.999939 48.700012-48.699951 2.899964-.400025 5.099976-2.900025 5.199952-5.900025v-12.299988c1.100036-.099975 2.200012-.099975 3.300048-.099975 1.099976 0 2.199952 0 3.299988.099975v12.299988c0 3 2.200012 5.5 5.200012 5.900025 25.199952 3.700012 45 23.5 48.699952 48.699951.400024 2.900024 2.900024 5.099975 5.900024 5.200073h12.299988c0 1.099976.100036 2.199951.100036 3.299927z"/></g><path d="m421.599976 906.632446h-7.899964c-3.600036 0-6.400024-2.900024-6.5-6.5v-157.199951c0-4.900024 1.200012-9.600098 3.399964-13.900024l6.700012-13v-79.200074l-6.700012-13c-2.199952-4.299926-3.399964-9.099975-3.399964-14v-269.699951c0-4.899963 1.200012-9.599975 3.399964-13.899963l6.700012-13v-79.200012l-6.700012-13c-2.199952-4.300049-3.399964-9.100037-3.399964-14v-135.800049c0-3.599976 2.899964-6.399964 6.5-6.5h7.899964c3.600036 0 6.400024 2.900024 6.5 6.5 1.062622 276.297851 1.220703 552.597656 0 828.900024-.099976 3.599976-3 6.5-6.5 6.5zm-7.899964-840.900024c-3 0-5.5 2.400024-5.5 5.5v135.800049c0 4.699951 1.099976 9.299987 3.299988 13.5l6.799988 13.099975c0 .099976.100036.099976.100036.200012v79.5c0 .099976 0 .200013-.100036.200013l-6.799988 13.099975c-2.200012 4.200012-3.299988 8.799988-3.299988 13.5v269.699951c0 4.700074 1.099976 9.300049 3.299988 13.5l6.799988 13.100098c0 .099976.100036.099976.100036.199951v79.5c0 .099976 0 .199951-.100036.199951l-6.799988 13.100098c-2.200012 4.199951-3.299988 8.799927-3.299988 13.5v157.199951c0 3 2.399964 5.5 5.5 5.5h7.899964c3 0 5.5-2.400024 5.5-5.5v-828.900024c0-3-2.399964-5.5-5.5-5.5z"/><path d="m438.799988 858.932495h-11.299988c-.299988 0-.5-.200073-.5-.5l.757507-786.42926c.000244-.299988.200013-.5.5-.5h11.299988c.299988 0-.257507.229187-.257507.529236v786.400024c0 .299927-.200012.5-.5.5zm-9.936829-1h9.436829l.757507-785.42926h-10.299988l1.009217 8.753052c-.582581 256.113708 4.514831 511.751159-1.088013 768.299621-.060791 2.783081.24762 5.593262.184448 8.376587z"/><path d="m550.682312 1000.286621h-106.199951c-3.600037 0-6.5-2.899902-6.5-6.499878v-978.000061c0-3.599975 2.899963-6.5 6.5-6.5h106.199951c116.800049 0 211.900024 95.100037 211.900024 211.900025v567.200012c0 117-94.799987 211.899902-211.900024 211.899902zm-106.199951-989.899902c-3 0-5.5 2.399963-5.5 5.5v978c0 3 2.399963 5.5 5.5 5.5h106.199951c116.300049 0 210.900024-94.599976 210.900024-210.900025v-567.299987c0-116.299988-94.599975-210.900025-210.900024-210.900025z"/><path d="m417.900024 314.332458h-4.200012c-3.799988 0-6.900024-3.099975-7-7v-67.600036c0-3.799988 3.099976-6.899964 7-7h4.200012c.599976 0 1 .400024 1 1v79.500061c0 .699951-.5 1.099975-1 1.099975zm-4.200012-79.5c-2.700012 0-5 2.200013-5 5v67.599976c0 2.700012 2.200012 5 5 5h3.200012v-77.5h-3.200012z"/><path d="m417.900024 717.132446h-4.200012c-3.799988 0-6.900024-3.099975-7-7v-67.599975c0-3.800049 3.099976-6.900025 7-7h4.200012c.599976 0 1 .400024 1 1v79.5c0 .599975-.5 1.099975-1 1.099975zm-4.200012-79.5c-2.700012 0-5 2.199951-5 5v67.599976c0 2.700073 2.200012 5 5 5h3.200012v-77.5h-3.200012z"/><path d="m568.767334 998.71167c26.618347-2.355103 50.501404-9.199951 75.945862-21.766113 5.091064-2.514283 10.0448-5.200684 14.855774-8.051514 19.104492-11.320557 36.269226-27.082886 49.597595-41.739014 25.489319-28.028686 45.456238-70.081665 51.376038-116.52417.083984-.659057.396606-4.266113.373352-6.753906-.064087-6.857422.645202-20.002807.801574-38.338501.661377-77.554809 1.093811-244.039795 1.066101-376.436706-.021118-101.202332-.311096-182.487427-.973022-188.912842-2.687378-26.089356-9.300903-49.058655-20.769837-72.135498-31.764465-63.91449-92.95404-107.443421-164.004394-116.669434-11.362366-1.475403-60.698669-1.651123-96.601563-1.326111-7.736938.070008-14.067749-.081482-20.135192.056031-7.469605.169311-12.89972-.068543-16.203431.248962-1.725463.165833-3.02594.790222-3.227539.989929-.101745.100769-1.424682 1.382752-1.534362 3.347962-.288819 5.174011-.255799 17.114502-.437623 38.05188-.036743 4.233947-.072937 8.833313-.108276 13.815307-.034973 4.930664.13263 10.123657.099243 15.820557-.051513 8.771911.124207 18.558777.071472 29.251098-.0484 9.810059-.245056 20.496705.002015 32.016114.192443 8.972412.204101 18.376037.156189 28.43634-.072022 15.104065.591674 31.148743.324401 48.968994-.224548 14.97583.115845 29.987793-.03717 46.9245-.100098 11.075744.079224 22.615661-.020996 34.606201-.060181 7.200683-.007996 14.539673-.079407 22.07312-.49591 52.107239-.018371 112.208191-.018371 180.332947 0 254.314575-.315003 376.100097-.049622 435.152588.034424 7.666992-.197082 14.451049-.130432 20.149047.025696 2.195679-.044495 4.297608-.018433 6.231934.044922 3.31897-.034607 6.6427.013001 9.257691.053406 2.930053-.065003 5.804443-.005982 7.96228.135865 4.987915.095703 8.097046.274414 10.036743.261719 2.841064 1.264893 3.578979 1.560364 3.826172.21875.182983 1.301758.928833 3.079346 1.087646 4.532776.405152 14.557556.347779 27.089722.226563 9.863891-.095459 21.281127-.230347 32.796386-.210205 32.132263.055908 65.23407.254883 64.873108-.005982z" fill="#ff5f53" stroke="#000005" stroke-opacity=".956863" stroke-width="1.00051"/><path d="m535 763.232422c-23.099976 0-41.900024-18.699951-41.900024-41.900025 0-23.199951 18.700012-41.899902 41.900024-41.899902s41.900024 18.699951 41.900024 41.899902c-.100036 23.100098-18.800048 41.800049-41.900024 41.900025zm0-82.799927c-22.599976 0-40.900024 18.299927-40.900024 40.899902 0 22.600098 18.300048 40.900025 40.900024 40.900025s40.900024-18.299927 40.900024-40.900025c-.100036-22.599975-18.300048-40.899902-40.900024-40.899902z"/><path d="m602.200012 203.232422h-5.5l-7.641968-10.915833-7.958068 10.915833h-5.399964l10.599976-16.299988-9.799988-15.599976h5.200012l7.437439 10.563904 7.262573-10.563904h5l-9.800048 15.399964z" fill="#fff"/><path d="m529.200012 244.532471-11.600036 20.599975v11.400025h-4.399964v-11.5l-11.600036-20.5h5.300048l6.399964 11.700012 2.081482 2.987854 2.418518-2.587891 6.400024-12.099975z" fill="#fff"/><path d="m675.900024 276.532471h-4.700012l-2.200012-7-12.363403.328308-3.236573 6.671692h-4.5l9.926819-35.204285 6.673157 3.204285zm-8.734924-11.270569-4.883423-14.594116-4.58551 14.811889z" fill="#fff"/><path d="m599.400024 340.432434c0 1.400024-.300048 2.800049-.900024 4.100037-.599976 1.200012-1.5 2.200012-2.5 3-1.200012.899963-2.599976 1.5-4 1.899963-1.700012.400024-3.400024.700012-5.200012.600037h-8.399964v-32h9.199952c7.100036 0 10.700012 2.599975 10.700012 7.799987 0 1.599976-.399964 3.099976-1.200012 4.5-1 1.400025-1.00531 2.326722-2.605347 2.826722.900024.199951.305359.373291 1.105347.773254.800048.400024 1.5.900024 2 1.5.600036.600037 1.100036 1.400024 1.400024 2.200012.200012.799988.400024 1.799988.400024 2.799988zm-5.700012-14.099976c0-.599975-.100036-1.299987-.299988-1.799987-.200012-.600037-.600036-1.100037-1-1.5-.600036-.5-1.300048-.799988-2-1-1-.299988-2.100036-.400025-3.200012-.400025h-4.5v10h4.399964c.900024 0 1.800048-.099975 2.700012-.299988.799988-.200012 1.5-.5 2.100036-1 .599976-.400024 1-1 1.299988-1.700012.399964-.700012.5-1.5.5-2.299988zm1.099976 14.200013c0-.799988-.200012-1.5-.5-2.200013-.399964-.700012-.899964-1.200012-1.5-1.700012-.700012-.5-1.5-.799988-2.399964-1-1-.299988-2.100036-.399963-3.200012-.399963h-4.5v11h4.599976c2.5 0 4.400024-.5 5.600036-1.400025 1.299988-1 2-2.599975 1.899964-4.299987z" fill="#fff"/><path d="m745.599976 139.332458c-.099976 0-.099976 0-.199952 0-.300048-.100036-.600036-.299987-.700012-.600036-33-77.699951-109.299988-128.199951-193.799988-128.099976h-54.200012c-.600036 0-1-.400024-1-1v-2.599975c0-3.800049 3.099976-6.900025 7-7h51.200012c85.199952.099975 162.399964 50.099975 197.299988 127.799987 1.200012 2.599976.599976 5.700013-1.5 7.799988l-3.400024 3.400025c-.200012.199951-.5.299987-.700012.299987zm-247.899964-130.700012h53.200012c84.699952-.099975 161.299988 50.200012 195 128l2.399964-2.400024c1.5-1.399964 1.900024-3.599976 1.100036-5.5-34.600036-77-111.100036-126.599976-195.5-126.699951h-51.200012c-2.700012 0-5 2.199951-5 5z"/><path d="m496.5 133.732422h-11.700012c-2.200012 0-4-1.799988-4-4v-11.699951c0-1.100037-.899964-2-2-2h-11.700012c-2.199952 0-4-1.800049-4-4v-11.700013c0-2.200012 1.800048-4 4-4h11.700012c1.100036 0 2-.900024 2-2v-11.5c0-2.200012 1.799988-4 4-4h11.700012c2.200012 0 4 1.799988 4 4v11.700013c0 1.099975.900024 2 2 2h11.700012c2.200012 0 4 1.799987 4 4v11.699951c0 2.200012-1.799988 4-4 4h-11.700012c-1.099976 0-2 .900024-2 2v11.700012c0 2-1.799988 3.799988-4 3.799988zm-29.299988-35.199951c-1.100036 0-2 .899963-2 2v11.699951c0 1.100036.899964 2 2 2h11.700012c2.199952 0 4 1.800049 4 4v11.700012c0 1.100037.899964 2 2 2h11.699952c1.100036 0 2-.899963 2-2v-11.700012c0-2.199951 1.800048-4 4-4h11.700012c1.100036 0 2-.899964 2-2v-11.699951c0-1.100037-.899964-2-2-2h-11.700012c-2.199952 0-4-1.800049-4-4v-11.700013c0-1.100036-.899964-2-2-2h-11.699952c-1.100036 0-2 .899964-2 2v11.700013c0 2.199951-1.800048 4-4 4z"/><path d="m588.900024 372.432434c-21.200012 0-38.5-17.199951-38.5-38.5 0-21.199951 17.199952-38.5 38.5-38.5 21.199952 0 38.5 17.200012 38.5 38.5-.100036 21.300049-17.300048 38.5-38.5 38.5zm0-74.899963c-20.100036 0-36.5 16.299987-36.5 36.5 0 20.099975 16.299988 36.5 36.5 36.5 20.099976 0 36.5-16.299988 36.5-36.5-.100036-20.200013-16.400024-36.5-36.5-36.5z"/><path d="m588.900024 225.532471c-21.200012 0-38.5-17.200013-38.5-38.5 0-21.200013 17.199952-38.5 38.5-38.5 21.199952 0 38.5 17.199951 38.5 38.5-.100036 21.299987-17.300048 38.5-38.5 38.5zm0-74.900025c-20.100036 0-36.5 16.299988-36.5 36.5 0 20.099976 16.299988 36.5 36.5 36.5 20.099976 0 36.5-16.299988 36.5-36.5-.100036-20.200012-16.400024-36.5-36.5-36.5z"/><path d="m662.299988 299.032471c-21.200012 0-38.5-17.200013-38.5-38.5 0-21.200013 17.200012-38.5 38.5-38.5 21.200012 0 38.5 17.199951 38.5 38.5 0 21.200012-17.200012 38.399963-38.5 38.5zm0-75c-20.099976 0-36.5 16.299987-36.5 36.5 0 20.099975 16.299988 36.5 36.5 36.5 20.100036 0 36.5-16.299988 36.5-36.5 0-20.100037-16.299988-36.5-36.5-36.5z"/><path d="m515.5 299.032471c-21.200012 0-38.5-17.200013-38.5-38.5 0-21.200013 17.200012-38.5 38.5-38.5 21.200012 0 38.5 17.199951 38.5 38.5-.099976 21.200012-17.299988 38.399963-38.5 38.5zm0-75c-20.099976 0-36.5 16.299987-36.5 36.5 0 20.099975 16.207031 36.197387 36.407043 36.197387 20.099976 0 36.592957-15.997375 36.592957-36.197387-.099976-20.100037-16.400024-36.5-36.5-36.5z"/><path d="m535 750.232422c-16 0-28.900024-13-28.900024-28.900025 0-15.899902 13-28.899902 28.900024-28.899902 16 0 28.900024 13 28.900024 28.899902 0 16-12.900024 28.900025-28.900024 28.900025zm0-55.900025c-14.900024 0-26.900024 12.100098-26.900024 26.900025 0 14.800049 12.100036 26.900024 26.900024 26.900024 14.900024 0 26.900024-12.099975 26.900024-26.900024 0-14.799927-12-26.799927-26.900024-26.900025z"/><path d="m525.799988 533.432495h-12.299988c-.599976 0-1-.400024-1-1 1.700012-39.600098 33.400024-71.300049 73-73.000061.299988 0 .5.100037.700012.300049.200012.199951.299988.399963.299988.699951v12.300049c0 3.5-2.599976 6.399963-6 6.899963-24.700012 3.700012-44.200012 23.099976-47.900024 47.900025-.399964 3.299926-3.299988 5.900024-6.799988 5.900024zm-11.200012-2h11.200012c2.5 0 4.600036-1.800049 4.900024-4.300049 3.899964-25.599975 24-45.700012 49.599976-49.599975 2.5-.299988 4.299988-2.400025 4.299988-4.900025v-11.200012c-37.399964 2.100037-67.899964 32.600037-70 70.000061z"/><path d="m585.599976 612.132446c-39.599976-1.699951-71.299988-33.400024-73-73 0-.599975.400024-1 1-1h12.300048c3.5 0 6.399964 2.599976 6.899964 6 3.700012 24.699951 23.100036 44.199951 47.900024 47.900025 3.399964.5 6 3.400024 6 6.900024v12.299927c-.100036.400024-.600036.900024-1.100036.900024zm-71-72.099975c2.200012 37.400024 32.600036 67.799926 70 70v-11.200074c0-2.5-1.799988-4.599975-4.299988-4.899902-25.599976-3.900024-45.700012-24-49.599976-49.600098-.299988-2.5-2.400024-4.299926-4.900024-4.299926z"/><path d="m592.200012 612.132446c-.600036 0-1-.400024-1-1v-12.300049c0-3.5 2.599976-6.399902 6-6.899902 24.700012-3.700073 44.200012-23.100098 47.899964-47.900024.5-3.400025 3.400024-6 6.900024-6h12.299988c.600036 0 1 .400024 1 1-1.799988 39.699951-33.399964 71.299926-73.099976 73.099975.099976 0 .099976 0 0 0zm59.799988-72.099975c-2.5 0-4.599976 1.799926-4.900024 4.299926-3.899964 25.600098-24 45.700074-49.599976 49.600098-2.5.299927-4.299988 2.399902-4.299988 4.899902v11.200074c37.399964-2.200074 67.799988-32.599976 70-70z"/><path d="m664.299988 533.432495h-12.299988c-3.5 0-6.400024-2.600098-6.900024-6-3.699952-24.700073-23.099976-44.200012-47.899964-47.900024-3.400024-.5-6-3.400025-6-6.900025v-12.299988c0-.299987.099976-.5.299988-.700012s.5-.299988.700012-.299988c39.599976 1.700013 71.299988 33.399964 73 72.999939.099976.600098-.299988 1-.900024 1.100098zm-71.099976-72.000061v11.200012c0 2.5 1.799988 4.600037 4.299988 4.900025 25.599976 3.899963 45.700012 24 49.599976 49.599975.300048 2.5 2.400024 4.300049 4.900024 4.300049h11.200012c-2.100036-37.400024-32.600036-67.900024-70-70.000061z"/><path d="m588.900024 612.232422c-1.200012 0-2.300048 0-3.400024-.099976-.5 0-.900024-.5-.900024-1v-12.300049c0-2.5-1.799988-4.599975-4.299988-4.899902-25.599976-3.900024-45.700012-24-49.599976-49.600098-.299988-2.5-2.400024-4.299926-4.900024-4.299926h-12.299988c-.5 0-1-.400025-1-.900025-.099976-1.099975-.099976-2.199951-.099976-3.400024 0-1.199951 0-2.299927.099976-3.400025 0-.5.5-.899902 1-.899902h12.299988c2.5 0 4.600036-1.800049 4.900024-4.300049 3.899964-25.599975 24-45.700012 49.599976-49.599975 2.5-.299988 4.299988-2.400025 4.299988-4.900025v-12.299988c0-.5.400024-1 .900024-1 2.299988-.099975 4.5-.099975 6.799988 0 .5 0 .900024.5.900024 1v12.299988c0 2.5 1.799988 4.600037 4.299988 4.900025 25.599976 3.899963 45.700012 24 49.599976 49.599975.300048 2.5 2.400024 4.300049 4.900024 4.300049h12.299988c.5 0 1 .399902 1 .899902.100036 1.100098.100036 2.200074.100036 3.400025 0 1.200073 0 2.300049-.100036 3.400024 0 .5-.5.900025-1 .900025h-12.299988c-2.5 0-4.599976 1.799926-4.900024 4.299926-3.899964 25.600098-24 45.700074-49.599976 49.600098-2.5.299927-4.299988 2.399902-4.299988 4.899902v12.300049c0 .5-.400024 1-.900024 1-1.099976 0-2.200012.099976-3.399964.099976zm-2.300048-2.099976c1.5.099976 3.100036.099976 4.700012 0v-11.300049c0-3.5 2.600036-6.399902 6-6.899902 24.700012-3.700073 44.200012-23.100098 47.900024-47.900024.5-3.400025 3.399964-6 6.899964-6h11.300048c0-.800049 0-1.5 0-2.300049 0-.799927 0-1.599976 0-2.299927h-11.400024c-3.5 0-6.400024-2.600098-6.900024-6-3.699952-24.700073-23.099976-44.200012-47.899964-47.900024-3.400024-.5-6-3.400025-6-6.900025v-11.299988c-1.5-.099975-3.100036-.099975-4.700012 0v11.299988c0 3.5-2.599976 6.400025-6 6.900025-24.700012 3.700012-44.200012 23.099975-47.900024 47.900024-.5 3.399902-3.399964 6-6.899964 6h-11.299988v2.299927 2.300049h11.299988c3.5 0 6.399964 2.599975 6.899964 6 3.700012 24.699951 23.100036 44.199951 47.900024 47.900024 3.400024.5 6 3.399902 6 6.899902v11.300049z"/><path d="m506.277588 295.490051c-6.326843-1.657654-11.32251-3.904113-16.499573-9.071777-7.724914-7.710816-11.289429-16.945007-10.841186-27.697144.562744-13.498047 8.029235-25.02893 20.033874-30.957824 10.513062-5.1922 22.554321-5.300415 32.663086-.266663 7.935425 3.951599 12.83197 10.033264 16.629822 17.973511 5.187927 10.846496 4.248047 24.403198-2.397156 34.576599-4.997375 7.650757-13.486755 13.696045-22.040039 15.694885-4.818603 1.126099-12.723022 1.012757-17.548828-.251587zm11.660766-24.535522v-5.810669l5.620423-9.969422c3.091247-5.483215 5.620483-10.215148 5.620483-10.51538 0-.300293-1.154541-.54596-2.565674-.54596h-2.565612l-4.200318 8.096436c-2.679382 5.164795-4.335876 7.829773-4.574707 7.360107-.205932-.404968-2.131042-4.048401-4.278015-8.096435l-3.903564-7.360108h-2.873352c-1.580323 0-2.873352.127808-2.873352.283997 0 .15625 2.649658 4.966369 5.888061 10.68927l5.888123 10.405212v5.63678 5.636841h2.408752 2.408752z" fill="#1a1a1a" stroke="#000"/><path d="m582.707275 222.901917c0-.31775-3.679992-.846619-5.6828-1.602295-2.946899-1.111939-5.893005-2.632142-7.961304-4.015564-6.910156-4.621766-11.714599-10.88086-14.540222-18.942566-1.345764-3.839539-2.055969-5.202698-2.055969-11.449463 0-6.246704.710205-7.182495 2.055969-11.022034 3.877747-11.063476 11.801453-19.057678 22.768494-22.971069 4.250976-1.516846 5.147583-2.289551 11.560242-2.289551 6.412658 0 7.331848.772705 11.582824 2.289551 14.518555 5.180664 24.017517 17.632629 24.671021 32.868652.454223 10.591309-2.741638 19.49585-10.187988 26.914002-7.559571 7.530944-14.420533 10.699218-24.626893 10.985168-3.38562.09491-6.847351-.622986-7.583374-.76477zm2.386048-25.684632c4.254455-7.149597 3.377563-7.254944 8.209289.985962l3.054261 5.209351 3.121521.010009 3.121521.01001-1.229615-2.007324c-.676269-1.104004-3.07666-4.866211-5.334106-8.360413l-4.104431-6.353088 4.755127-7.43512c2.615356-4.089294 4.755188-7.56604 4.755188-7.726013 0-.159912-1.24939-.218017-2.776368-.129028l-2.776367.161804-3.107239 5.053894c-1.708984 2.779663-3.295654 5.24231-3.525878 5.472534-.230225.230225-1.931336-2.104248-3.780274-5.187744l-3.361755-5.606323h-2.958801-2.958802l1.226807 2.007263c.674805 1.104065 2.871399 4.621277 4.88147 7.816162l3.654541 5.808777-4.852539 7.434143c-2.668885 4.088806-4.992127 7.797852-5.162659 8.24231-.252869.658996.221557.808166 2.570495.808166h2.880616z" fill="#1a1a1a" stroke="#000"/><path d="m654.936584 296.478699c-6.698547-.995911-15.587341-5.794617-20.805847-12.874634-3.026794-4.106567-6.221008-10.665894-7.265381-15.67096-2.763183-13.242797 2.635743-27.855285 13.268982-35.913147 19.993714-15.151184 48.0943-6.687683 56.440979 16.999207 1.861878 5.283814 2.982911 13.31427 1.68042 19.168518-1.508117 6.778748-4.866638 12.856445-10.194336 18.158569-5.265747 5.240479-9.894775 7.951355-16.433166 9.623597-4.85614 1.242004-12.032593 1.201538-16.691651.50885zm-.173889-23.059021 1.069275-3.345459 6.503723-.150147 6.503785-.150085.987365 3.361816.987366 3.361756 2.515869.163147c1.824341.118286 2.51593-.033509 2.51593-.552369 0-.393554-2.295776-7.753479-5.101684-16.355346l-5.101685-15.639893h-3.150635-3.150573l-5.208557 15.656983c-2.864686 8.611267-5.319275 15.958007-5.45459 16.326049-.175782.477845.505615.669068 2.384521.669068h2.630615z" fill="#1a1a1a" stroke="#000"/><path d="m583.708008 369.896606c-8.124024-1.276245-14.236267-3.962646-20.56659-10.263916-3.762023-3.74469-5.373962-6.192077-7.192199-9.960449-7.600464-15.752624-2.960205-33.081116 10.77539-44.104675 6.35669-5.101563 13.619568-7.592407 22.138367-7.592407 29.933716 0 46.67981 33.838623 28.709473 58.012817-2.796387 3.761719-6.276856 7.451355-10.511353 9.840881-7.040649 3.973084-15.700928 5.269898-23.353088 4.067749zm11.203308-21.383483c3.073547-1.759949 4.529175-4.208435 4.576782-7.698426.044312-3.24646-1.271667-5.853027-3.499573-6.932007l-1.493896-.72351 1.608765-1.541321c1.873107-1.794495 2.804565-4.701904 2.330505-7.274048-.927429-5.03241-3.684815-6.334106-13.451721-6.350281l-7.092407-.01178v16.109742 16.109741l7.360046-.185181c6.651306-.167297 7.581726-.312073 9.661499-1.502929z" fill="#1a1a1a" stroke="#000"/><path d="m582.707275 326.474365v-4.889465l3.729981.266846c4.160583.297729 6.249023 1.337097 6.757507 3.363098.947144 3.773681-1.806579 6.143738-7.142029 6.146911l-3.345459.002015z" fill="#1a1a1a" stroke="#000"/><path d="m657.54718 264.852722c0-.763733 4.252014-14.101257 4.627136-14.51416.178894-.19696 1.326477 2.824829 2.550171 6.714966 1.223633 3.890198 2.331421 7.350769 2.46167 7.690185.187439.488587-.791809.617127-4.701111.617127-3.257324 0-4.937866-.172913-4.937866-.508118z" fill="#1a1a1a" stroke="#000" stroke-width=".999998"/><path d="m583.062195 340.776855v-5.120788h3.615112c4.59668 0 6.580994.936401 7.499756 3.539307.552734 1.565918.544617 2.042297-.059143 3.479797-.976441 2.324951-3.070618 3.222534-7.518189 3.222534h-3.537536z" fill="#1a1a1a" stroke="#000" stroke-width=".999998"/><path d="m586.923218 602.679932c-.290467-8.926514-.825257-9.726685-10.13208-11.862915-21.074707-4.837281-37.20459-20.142212-42.613343-41.34607-.550048-2.15625-1.087463-5.195434-1.087463-5.87915s-1.006409-2.249512-2.23645-3.479614l-2.348633-1.948487-6.860168-.287842h-6.972413v-1.973388-1.973267h5.941102c6.603393 0 9.936889-1.001587 11.202087-3.365722.442627-.827027 1.501282-3.935059 2.000244-6.974244 2.677612-16.30957 14.912109-30.686523 29.483643-37.964233 4.715698-2.355225 11.366516-4.654419 15.505859-5.360352 6.618774-1.128784 8.222168-3.615112 8.222168-12.749511v-5.94104h1.973328 1.973327v6.89624c0 6.616089.073487 6.974731 1.808899 8.828979 1.462586 1.562806 3.906861 1.704712 9.491394 3.065491 20.408814 4.973084 35.284607 20.460388 40.716614 40.148499.788147 2.856567 1.764709 6.368774 2.170105 7.805053 1.227844 4.35022 3.853882 5.61084 11.687622 5.61084h6.480469v1.973267 1.973388h-6.610413c-6.955932 0-9.890198.841309-10.811889 3.100098-.263794.646485-1.27295 4.607788-2.135743 8.033325-5.389709 21.39917-21.276184 36.720337-42.135009 41.531739-9.949891 2.295044-10.662049 3.146606-10.662049 12.75061v6.281494h-1.913452-1.913452z" fill="#1a1a1a" stroke="#1a1a1a"/><path d="m515.457947 526.529175c1.752807-15.267761 8.923645-31.226135 20.421448-42.952149 11.953491-12.190796 27.520996-19.179992 45.72174-21.640564l2.795532-.377929v6.183716c0 7.932861-.123962 8.868652-6.840087 10.244995-22.30127 4.570251-41.813172 22.088867-46.102601 44.188659-1.760681 9.071289-2.356933 9.122193-11.114135 9.122193h-5.429383z" fill="#1a1a1a" stroke="#4d4d4d"/><path d="m574.53009 608.28064c-32.219177-6.915039-55.742065-32.911255-59.391174-65.635987l-.238403-2.137695h6.361877c6.887512 0 6.852966.019043 7.746155 1.019043 1.266113 1.417603 1.512085 3.833618 2.429809 7.895996 4.793885 21.221558 24.190491 39.138428 46.586731 43.982056 6.898743 1.492065 6.371582 2.731811 6.371582 10.285766v5.883301l-2.137756-.046265c-1.175781-.025512-4.653747-.586303-7.728821-1.246215z" fill="#1a1a1a" stroke="#4d4d4d"/><path d="m593.339966 603.085693c-.28949-7.257324.977966-8.251587 5.326599-8.997192 4.850403-.831543 11.111328-2.922363 16.316589-5.448853 15.80304-7.670288 27.124573-21.987182 31.557495-39.906982.977417-3.951294 1.569825-7.240967 2.248597-7.737183.717285-.524536 3.903015-.488525 7.849975-.488525h6.213684l-.43164 3.782105c-3.78833 33.197265-31.779786 61.263916-64.828736 65.002929l-3.986999.45105z" fill="#1a1a1a" stroke="#4d4d4d"/><path d="m648.66156 529.874146c-1.175903-1.072632-1.306763-2.964356-2.111999-6.726685-4.37909-20.459961-18.959717-36.617065-39.289368-43.537293-2.438721-.830139-5.824097-1.717834-7.522949-1.972595-1.882325-.282287-3.856018-.562317-4.783142-1.48938-1.376099-1.376098-1.348572-2.612365-1.348572-8.254028v-6.237366l2.466614.331238c18.995056 2.551087 32.677734 9.21106 45.444885 22.120056 10.431396 10.547303 17.440674 23.809876 20.160217 38.145813.546997 2.883545.994507 6.098145.994507 7.143555v1.900635h-5.883301c-5.181946 0-6.697937-.120362-8.126892-1.42395z" fill="#1a1a1a" stroke="#4d4d4d"/><path d="m483.620667 131.065613c-.533265-.589234-.625-1.697022-.625-7.547058v-6.856446l-1.101136-1.233337-1.101135-1.233276-7.112793-.106507c-4.068054-.060852-6.476807.46167-7.573425-.164001-1.353333-.772156-.861145-3.065735-.861145-7.629883 0-4.682617.125549-6.289124.535339-6.850281.490112-.671264 1.103272-.741455 7.269775-.832214 3.70398-.054566 7.122132-.186585 7.595948-.293396.473755-.106812 1.195373-.741943 1.603576-1.411438.662171-1.08606.74231-1.921997.743592-7.756531.000793-3.782654.166198-6.84729.392334-7.269836.364807-.681641.856323-.730469 7.350952-.730469s6.986084.048828 7.350891.730469c.226135.422546.39154 3.487182.392395 7.269836.000977 5.834534.08136 6.670471.74353 7.756531.408203.669495 1.129883 1.304626 1.603638 1.411438.473816.106811 3.891968.23883 7.595947.293396 6.166504.090759 6.779602.16095 7.269776.832214.409729.561157.535278 2.167664.535278 6.850281 0 4.821899.736938 7.189392-.884033 7.881042-1.156617.49347-3.76593-.143798-7.550476-.087097l-7.112793.106446-1.101136 1.233337-1.101196 1.233337v6.922059c0 6.226379-.069397 6.984863-.690613 7.547058-.585693.530029-1.667114.625-7.116821.625-5.746033 0-6.492371-.073059-7.051269-.690613z" fill="#1a1a1a" stroke="#000" stroke-width=".999999"/><path d="m529.898621 726.47522v-5.257447h5.307495 5.207336v5.257447 5.257446h-5.207336-5.307495z" fill="#1a1a1a" stroke="#4d4d4d" stroke-width="1.00067"/><path d="m529.325867 761.64624c-14.845337-2.336181-27.221497-12.343017-32.436463-26.226806-7.522888-20.028199 2.332825-43.031128 22.027588-51.411988 6.071716-2.583862 7.956909-3.520141 15.698059-3.490478 6.509278.025024 7.911072.60376 11.258728 1.620239 14.443482 4.385986 24.641907 14.875 28.586731 29.401367.78711 2.89856 1.106079 5.241577 1.098267 10.741944-.007996 5.447143-.336731 6.154296-1.114319 9.048095-4.752747 17.686158-20.042725 29.950928-38.075134 30.541748-2.558106.083741-5.727661-.01709-7.043457-.224121zm12.019165-11.949707c11.93988-2.628296 21.266052-13.045898 22.490051-25.12207 2.182861-21.5354-18.131104-37.702759-38.520996-30.658081-4.177124 1.443237-6.99054 3.287109-10.817932 7.090088-2.820984 2.802978-3.81836 4.1427-5.325684 7.153686-2.559387 5.112549-3.298401 8.689087-3.023193 14.630615.315185 6.806031 2.155823 11.734009 6.307495 16.88733 6.758484 8.38916 18.226196 12.365966 28.890259 10.018432z" fill="#1a1a1a" stroke="#4d4d4d"/><path d="m411.472534 714.34375c-1.327453-.809448-2.290039-.921753-2.473694-5.31311-.181457-4.338623.062012-13.485962.062012-32.629883 0-32.805176-.469849-35.196778.630066-36.256592.066345-.063965.103149-.14624.16095-.219727 1.141662-1.451416 2.688903-2.126831 4.872009-2.126831h1.91272v38.636353 38.636353l-1.988648-.001954c-1.288879-.000732-2.40625-.256103-3.175476-.725219z" fill="#ff5f55" fill-opacity=".956863" stroke="#000"/><path d="m412.876526 312.1427c-.505554-.095093-1.323914-.43811-1.818604-.762207-.778991-.510437-1.538269-.766968-1.82843-2.703064-.48352-3.225891-.16864-11.381592-.16864-35.101806 0-19.26294-.522217-28.346375-.380676-32.532654.092224-2.725952.778747-3.234192 1.000244-3.60907.933716-1.580628 2.42865-2.287781 4.836609-2.287781h2.119629v38.636353 38.636352l-1.420471-.051635c-.78125-.028382-1.834107-.129395-2.339661-.224488z" fill="#ff5f55" fill-opacity=".956863" stroke="#000"/><path d="m741.315063 126.485046c-10.087341-20.551635-21.903808-37.241882-38.156677-53.894409-34.816406-35.672546-78.669739-57.010193-129.646728-63.08197-5.062683-.603027-13.076783-.792053-40.92157-.96521l-34.625977-.215332v-1.407104c0-.978455.013123-2.965027 1.401673-3.674317l2.123535-1.128845 30.377991.224914c16.927368.125367 33.549377.217713 37.004272.484681 50.752747 3.92163 97.064697 24.581665 133.314148 59.472229 17.581421 16.922302 31.482605 35.739013 42.78186 57.909546 4.283692 8.40509 4.8797 10.055358 4.253601 11.776794-.416503 1.145081-2.661926 4.171448-3.177185 4.129333-.144348-.011779-2.248352-4.576477-4.728943-9.63031z" fill-opacity=".956863" stroke="#4d4d4d"/><path d="m410.081848 903.80542c-.558777-.549927-1.707397-1.18335-1.556457-5.039795.26239-6.701904-.215516-27.162354-.138672-79.124268l.296448-82.564575 2.574951-6.446655 7.904663-15.052734.102783-39.425782-.36554-39.61914-7.109924-13.234375-2.910217-7.693238-.381836-7.290283.087891-48.027099-.103333-22.13208.096619-34.134156.055297-10.476318.011658-10.492249-.06958-8.6026.016113-25.574035-.005004-19.351502-.149659-27.483948.074585-21.585754-.017212-11.014587.104187-19.605469-.048217-10.227173.546142-5.684692 1.917053-5.785828 2.962403-5.522705 5.288391-9.819031v-39.482727l-.365357-39.5802-5.28125-9.751465-2.683471-5.330505-1.816956-5.136658-.736633-7.597107.237121-13.317383-.123779-12.247741-.01355-11.08368-.037414-10.847778.0307-9.870361.01001-6.53595.018006-2.903931.068176-17.391967.030579-21.510315-.000977-10.808289-.054199-8.443665.016967-5.125549-.222106-5.939697 2.200439-3.055603 3.158325-1.102356 3.217835.05896c1.415466.025879 2.725219.056763 3.940063.240478.863281.130555 1.836304.127137 2.585083.398316.992981.35968 1.67804 1.018616 2.035706 1.315429.208252.172852 1.214233 1.722535 1.325622 4.747437.075745 2.056396-.020141 4.681702-.009948 8.332031.011779 4.091248.083007 9.689087.036071 16.361511-.070312 10.012513-.017578 23.11731-.081604 40.379883-.048767 13.181031.195862 28.672669.144104 46.986634-.177551 62.765991-.24768 157.986877-.236206 300.97583l.033387 416.245605-1.262879 1.822754c-1.803223 2.602783-12.607849 2.902466-15.345703.20813z" fill="#1a1a1a" stroke="#000"/><path d="m429.120972 465.121216v-392.367676h4.311706 4.311707v392.367676 392.367554h-4.311707-4.311706z" fill="#1a1a1a" stroke="#000"/><path d="m575.151001 721.099487c0 22.240967-18.028137 40.270996-40.267029 40.270996-22.23883 0-40.266968-18.030029-40.266968-40.270996 0-22.241089 18.028138-40.270996 40.266968-40.270996 22.238892 0 40.267029 18.029907 40.267029 40.270996z" fill="#999595" stroke="#000" stroke-linecap="round" stroke-linejoin="round" stroke-width="2.39278"/><path d="m569.005005 721.421387c0 19.046142-15.247864 34.486084-34.057007 34.486084s-34.057007-15.439942-34.057007-34.486084c0-19.046021 15.247864-34.485962 34.057007-34.485962s34.057007 15.439941 34.057007 34.485962z" fill="#3a3d40" stroke="#000" stroke-linecap="round" stroke-linejoin="round" stroke-width="2.72654"/><path d="m535 694.332397-26.770142 26.416382h7.648621v22.52771h38.516235v-22.52771h7.238831zm7.785217 40.898438h-15.160644v-14.482056h15.160644z" fill="#fff"/><path d="m881.051758 471.339355h-13.190064l-.037231-8.255249h-14.106751c-3.69403 0-4.867065 3.292481-4.867065 8.260498v75.702027c0 3.532348 3.408508 6.310913 6.44043 6.310913h9.522583c2.594421 0 2.744323-2.750366 3.011718-5.111572v-5.025025h13.005249z" fill="#1a1a1a" stroke="#000" stroke-width="2.30124"/><path d="m867.853271 543.069336v-71.187622" fill="#1a1a1a" stroke="#000" stroke-width="2.30124"/><path d="m939.371033 426.29541v15.946045h-43.588806v-16.230835c0-2.098266 1.872558-3.045166 3.559631-3.488281 12.173035-3.196045 25.276611-3.034058 36.832642 0 1.821899.478393 3.196533 1.67688 3.196533 3.773071z" stroke="#000" stroke-width="2.30124"/><path d="m981.404358 570.844482c1.811706 5.597413 14.315979 16.058228 26.804016 18.494263 0 3.184815-2.174561 7.599365-6.67804 7.599365h-42.945373c-9.044373 0-6.768433 25.302246 7.882751 25.302246h14.822754c30.795777 10.884644 58.299012 11.106812 88.356263 0h15.616577c13.605835 0 16.40686-25.071289 7.810669-25.071289h-42.125855c-6.108887 0-8.968872-3.674804-8.610351-7.405639 10.964477-3.90503 20.754638-9.022217 26.281616-18.539307v-3.534546h-87.25177z" fill="#1a1a1a" stroke="#000" stroke-width="2.15573"/><path d="m985.946228 567.61377v7.248779c0 3.026123-2.565124 4.216186-5.856262 4.216186-17.73053 1.125489-39.27179 1.059571-57.431458 0-3.051696 0-6.044311-2.088867-6.010376-4.327148v-8.839111h69.298096z" fill="#1a1a1a" stroke="#000" stroke-width="1.97231"/><path d="m1002.036438 596.837402h45.041687" fill="none" stroke="#000" stroke-width="2.15573"/><path d="m904.933105 562.246582v12.015991c0 1.035034 1.443665 2.192627 2.56836 2.192627h45.102661c1.415771 0 3.133789-1.206177 3.133789-2.675049v-11.621093z" fill="#1a1a1a" stroke="#000" stroke-width="2.1477"/><path d="m1007.855469 589.177856h35.76355" fill="none" stroke="#000" stroke-width="2.15573"/><path d="m1131.425659 567.600586v7.192749c0 3.002808-2.565063 4.183594-5.855957 4.183594-17.730713 1.116821-39.271728 1.051391-57.431763 0-3.051635 0-6.044189-2.072632-6.010131-4.293701v-8.770752h69.297851z" fill="#1a1a1a" stroke="#000" stroke-width="1.96467"/><path d="m1058.675903 567.634888v7.338501c0 3.06372-2.565185 4.268432-5.856079 4.268432-17.730713 1.139527-39.271789 1.072754-57.431701 0-3.051697 0-6.044312-2.114624-6.010132-4.380737v-8.948608h69.297912z" fill="#1a1a1a" stroke="#000" stroke-width="1.9845"/><path d="m1168.979248 569.653442c8.529663 0 24.990967-16.610717 24.990967-25.556274v-58.658569c-4.574463-17.005005-13.355347-35.478272-41.845337-41.004029-4.975464 0-7.555298-4.593628-7.555298-7.403564-26.970093-35.049561-56.254761-53.087036-86.305908-65.492676h-63.63971c-27.373046 12.026367-42.634521 29.986816-54.631286 49.546631v10.820557c0 4.466919-3.775635 9.11206-8.717774 9.11206h-52.887756v128.707276z" fill="#ff5f53" stroke="#000" stroke-linecap="round" stroke-linejoin="round" stroke-width="2.30124"/><path d="m1159.963013 465.578369h-227.39093c.118591-46.394775 23.401977-94.427734 68.179199-94.427734l63.608581.74646c62.27356 11.133056 75.072022 54.96228 95.60315 93.681274z" fill="#1a1a1a" stroke="#000" stroke-width="2.30124"/><path d="m1178.626465 496.183472h-247.958801v27.992431c0 9.455689 12.316711 23.513672 23.996215 23.513672h207.965393c12.69629 0 22.091431-12.022949 22.091431-21.647461 0-11.594726 1.020142-29.858642-6.094238-29.858642z" fill="#1a1a1a" stroke="#000" stroke-width="2.30124"/><path d="m1015.523132 522.068115v-10.421142l4.83313.00061c2.658142.000244 5.220642.020386 5.694275.042358 2.064087.099854 3.36853.382203 4.263062.92273 1.373901.830078 2.289917 2.29541 2.52185 4.034058.069824.530639.027832 1.703369-.081421 2.193847-.3656 1.647705-1.321777 2.879028-2.8208 3.632935-.574463.28894-1.452271.576416-2.138062.700317-.284546.051148-.516846.103638-.516113.116089.000732.013672.153442.113159.338745.223022.596557.35376 1.218628.836426 1.750244 1.358277.863159.847046 1.408569 1.615112 3.702148 5.213257.77649 1.218261 1.440186 2.25769 1.47461 2.309936l.062622.094849h-2.53772-2.537842l-1.694702-2.478638c-3.189331-4.664184-3.609009-5.210815-4.385742-5.712036-.598145-.386108-1.124451-.491577-2.642944-.529663l-1.022461-.025757v4.373047 4.372925h-2.131287-2.131348v-10.421265zm10.52826-1.702514c.906982-.116089 1.366088-.317383 1.807495-.792603.445678-.479614.624511-.997192.624511-1.80835 0-1.123046-.423584-1.862182-1.302368-2.273071-.682495-.319214-.572632-.310547-4.17688-.331177l-3.218383-.01831v2.665771 2.66565l2.874084-.020508c2.268005-.016113 2.983093-.034546 3.391541-.086914z" fill="#fff" stroke="#fff" stroke-linecap="round" stroke-linejoin="round" stroke-width=".042622"/><path d="m1024.608154 422.916016v-10.40271l5.500367.018188c5.865478.018189 5.995483.023438 7.212524.236817.727661.127807 1.206299.273925 1.732544.529663.561279.272705.929199.536865 1.344482.96521.686402.708252 1.171143 1.612426 1.423218 2.655029.104614.436523.113892.546387.116211 1.401855.00061.725342-.023315 1.008301-.074341 1.294556-.493042 2.372681-2.157104 3.863281-4.920532 4.408569-.520508.102784-.580078.122803-.508911.173218.044067.031128.278076.183838.519409.338989 1.265259.814087 2.048706 1.631104 3.243408 3.383301.435181.638184 3.389893 5.242554 3.432007 5.348023.023315.042236-.490723.051025-2.511108.042114l-2.532593-.011475-1.896362-2.766235c-2.700806-3.939575-3.004151-4.356323-3.577759-4.912476-.791016-.767089-1.359497-.942749-3.173218-.980346l-1.065674-.022827v4.351196 4.351196h-2.131347-2.131226v-10.40271zm10.290528-1.663086c.700195-.075806 1.025146-.153687 1.404541-.336914.609497-.294556 1.036621-.843018 1.203125-1.545655.090698-.379394.088379-1.172851-.002076-1.514648-.275268-1.037232-1.09729-1.677124-2.304199-1.793701-.225586-.022827-1.741333-.039917-3.369262-.040528l-2.960083-.002075v2.663086 2.663086l2.787841-.022827c1.660767-.013672 2.970703-.04187 3.239991-.071167z" fill="#fff" stroke="#fff" stroke-linecap="round" stroke-linejoin="round" stroke-width=".042622"/><path d="m1004.58667 431.439209v-1.879517l5.575867-6.749023c3.066772-3.711914 5.575866-6.758301 5.575866-6.769653 0-.011353-2.228271-.020508-4.951477-.020508h-4.951416v-1.750855-1.750976h7.771607 7.771789v1.614136 1.614257l-5.83789 7.045533-5.837586 7.045532 6.052857.011474 6.053161.011353v1.729736 1.729615h-8.611267-8.611511v-1.879517z" fill="#fff" stroke="#fff" stroke-linecap="round" stroke-linejoin="round" stroke-width=".042622"/><path d="m151.489136 314.013367c-4.484925-.961731-17.265106-2.209412-14.219361-5.200806l-1.596099-5.332519 4.691558-28.979432c-21.876098.350464.885743-29.599792 1.140931-31.152282.671875-4.086731.637115-6.98639 4.008911-9.332581 4.319671-3.005676 6.138763-6.052368 15.397674-6.049316 6.185761.002014 6.236573 4.518432 7.635285 4.809387 2.837524.590271 9.269134.221741 11.120178 2.221008 1.293548 1.397156-1.703278 4.544617-1.055695 6.528443l.453736 1.389892 3.019287 28.031494c2.580902 23.961182-1.28772 28.633057-1.523895 30.690674-.507111 4.417664-1.369965 7.751648-2.718079 9.243836-.751953.832336-6.135559 2.177429-7.423493 2.754455-.695587.311646-1.652862 2.595642-4.83554 2.708557-6.191773.219605-12.786225-2.05011-14.095429-2.33081zm7.03009-22.693054c2.059692-1.108704 2.826477-2.349 4.082611-6.603638.94043-3.185364 1.279358-3.924683 2.000946-4.364563.801911-.488953 1.265473-.450501 1.964081.162903.711517.624694 1.008942 1.515747 1.008942 3.022583 0 1.5625-.456848 2.450378-1.57367 3.058227-.473358.25763-.984405.468384-1.135681.468384-.46698 0-.517334.316589-.38562 2.424438l.127411 2.039246.996063-.117065c1.812286-.213013 3.675873-1.280579 4.588013-2.628357.732147-1.081726 1.051178-2.012329 1.280395-3.734619.521576-3.919434-.800232-7.149598-3.481537-8.508179-.950958-.481873-1.183319-.523987-2.890258-.523987-1.615204 0-1.959412.054688-2.651642.421265-2.427246 1.2854-3.010346 2.277099-4.767395 8.107788-.81485 2.703918-1.682587 3.502685-3.32489 3.060425-.810944-.218323-1.795197-1.151185-2.098816-1.989197-.274628-.757996-.293701-2.481446-.036896-3.33844.110962-.370423.44342-.966614.738769-1.324951.554902-.673218 2.037262-1.484986 2.717133-1.488037.213013-.000855.440582-.087891.505676-.193177.065094-.105346.0206-1.099121-.098907-2.208435l-.217255-2.016968-.730346.108765c-1.043457.155457-2.733002.730347-3.56485 1.212952-1.005738.583496-2.330689 2.058838-2.824402 3.145019-.603729 1.328186-.860108 3.091126-.738892 5.080872.229126 3.76062 1.692871 6.016052 4.592377 7.076233.73645.269287 1.312134.327942 2.866089.291931 1.830047-.042358 2.009796-.080078 3.052643-.641418zm12.415344-19.963501v-2.272461l-4.35141-.092347c-4.613098-.098022-4.535278-.082031-4.77362-.976623-.382538-1.435791.876556-2.860718 4.543884-5.142334 1.304291-.811463 2.868622-1.783936 3.476288-2.161011l1.104858-.685669v-2.47937c0-1.372497-.071808-2.47937-.160949-2.47937-.206513 0-2.123658 1.076294-5.142365 2.886963-1.670929 1.002197-2.712524 1.767944-3.473938 2.553772l-1.087433 1.122375-.218109-.674072c-.552246-1.706848-1.657837-3.083618-3.044159-3.790894-.904266-.461303-2.764343-.670654-4.285065-.482299-2.328063.288391-4.028808 1.544677-4.622619 3.414611-.286804.903138-.545899 5.915833-.578369 11.188843l-.014405 2.342285h11.313691 11.31372z" fill="#ff5f53"/><path d="m175.209991 561.606018c0 7.770081-6.971374 14.06897-15.570983 14.06897-8.59964 0-15.571015-6.298889-15.571015-14.06897 0-7.770142 6.971375-14.069031 15.571015-14.069031 8.599609 0 15.570983 6.298889 15.570983 14.069031z" fill="#2e2f31" stroke="#000" stroke-linecap="round" stroke-linejoin="round"/><path d="m258.098297 511.82782v45.809814" fill="none" stroke="#000"/><path d="m251.009186 517.746155v36.373352" fill="none" stroke="#000"/><path d="m170.920227 682.611267c-.158997 2.386353-.933899 4.183472-2.349396 5.447144-1.053802.940918-2.496887 1.603027-4.186889 1.920959-.386414.072571-1.087098.177063-1.097504.163147 0-.005005-.093018-.853088-.201721-1.887756-.108185-1.034607-.205292-1.93451-.215576-1.999817-.018006-.104248-.01001-.118408.052002-.118408.121399 0 .662078-.122986 1.060394-.240845 1.894806-.561768 2.907593-1.698792 3.135681-3.520386.053009-.418579.02301-1.492492-.050995-1.882324-.195801-1.02948-.637787-1.7901-1.335998-2.300171-.545288-.398437-.990601-.542725-1.679688-.54425-.491119 0-.764892.056457-1.090607.228149-.223999.118469-.53421.398987-.713806.645508-.428405.588501-.638183 1.17334-1.399109 3.899231-.475189 1.703003-.759796 2.514831-1.190887 3.398376-.583984 1.196533-1.356293 2.064453-2.414002 2.712708-.582794.357177-1.333709.640625-2.047393.772705-.339203.063049-.490204.071594-1.185089.070862-.688813-.000733-.842011-.01001-1.134217-.070313-1.710296-.348938-3.145111-1.324341-3.985901-2.709411-.377807-.622498-.69281-1.428284-.870208-2.226441-.389374-1.752075-.311188-4.073059.192413-5.710754.2323-.755616.630707-1.54303 1.06369-2.1026.297608-.384827 1.037598-1.06012 1.462616-1.334961.680206-.439698 1.5737-.792664 2.4151-.953919.425385-.081543.968781-.145447 1.236084-.145447h.157105l.000213.181824c.000183.099793.039002.971436.087006 1.936524.047974.965149.085998 1.80487.085998 1.866149l.000092.11139-.302917.056518c-.679078.126282-1.358002.401734-1.770203.717774-.802673.615417-1.147186 1.52478-1.146698 3.027832.000305.989929.146118 1.669128.500427 2.330078.411072.766968.855194 1.079895 1.581391 1.114624.540283.026306.914398-.09198 1.291687-.406861.603607-.503723 1.002807-1.428405 1.684509-3.901062.530609-1.924926.769592-2.65686 1.17691-3.604248.723603-1.683044 1.722992-2.760803 3.165283-3.413391.862702-.39032 1.65741-.56195 2.804505-.605713 1.361908-.052307 2.612793.24524 3.808288.904602 1.336426.737061 2.292511 1.878602 2.838105 3.388184.475616 1.316101.684112 3.067505.569793 4.784973z" fill="#fff" stroke="#fff" stroke-linecap="round" stroke-linejoin="round" stroke-width=".013372"/><path d="m159.681671 273.553223-11.2276.052429.028198-4.648987c.014618-2.398743.018006-4.797546.033997-5.297241.120117-2.998474.508362-4.471558 1.802429-5.570984 1.439392-1.299316 3.862763-1.688538 6.059631-1.288757 1.223969.19989 2.149506.862854 2.971589 1.662414.755279.799622 1.345886 1.998963 1.583374 3.298279.052978.299866.088592.106995.129638.007019.026001 0 .176941-.007019.365967-.206909.792572-1.099426 1.504364-1.849548 2.853241-2.649109.782776-.499756 1.136261-.749146 4.087616-2.448242l2.495483-1.399292.00998 2.398742c0 1.998963-.000183 2.498719-.033997 2.498719-.02301 0-1.344452.899536-2.934448 1.799072-4.593109 2.798523-5.035095 3.373779-5.579682 3.97345-.540191.699646-.662231.815124-.691528 2.414306l.487183.758423 4.083496.269043 4.698456.010559-.019898 2.16919.019898 2.250244-11.13382-.047302zm-1.748932-9.394043c-.040985-.699646-.113983-1.299378-.187164-1.499268-.22171-.79956-.881592-1.399231-1.751801-1.599182-.324585-.099976-1.147979-.099976-1.508178-.099976-.87378.099976-1.482178.499756-1.850159 1.199402-.353088.699646-.377686.999451-.379089 4.697571l-.000702 2.498657h2.856354 2.856445v-2.298767c0-1.299377-.018006-2.598694-.03598-2.898498z" fill="#fff" stroke="#fff" stroke-linecap="round" stroke-linejoin="round" stroke-width=".013372"/><path d="m148.076294 282.700684c.269897-3.098389 1.470581-5.097351 3.82724-6.396668.945404-.499695 2.472351-.999451 3.666656-1.099426h.214386l.020997.100036c.037017.199891.419586 3.89795.404388 3.89795-.009979 0-.171875.099975-.363892.099975-.192077 0-.538177.099915-.769287.199951-1.790649.499695-2.780029 1.599122-3.103546 3.198304-.098999.499756-.107391 1.599182-.014984 2.198852.121674.699646.321991 1.199402.621765 1.599182.411499.599671.988007.999451 1.606293 1.199402.349701.099854 1.051575.19989 1.399566.099854.682984-.19989 1.129578-.499695 1.537598-1.299317.286163-.499695.486084-1.099426 1.124878-3.398193.581787-2.098938.895172-2.998474 1.468781-3.997925.547668-.999512 1.295257-1.699158 2.250854-2.298828 1.016174-.59967 2.169952-.899536 3.44104-.799561 1.095184 0 2.110748.299805 3.034546.899537.679474.39978 1.157898.79956 1.623077 1.499206.948182 1.299317 1.418793 2.998413 1.418274 5.097351-.000488 2.398743-.528289 4.197815-1.613464 5.597107-.280487.299805-.876984.899536-1.2565 1.099426-1.025177.699585-2.17746 1.099427-3.555634 1.199341-.211609 0-.389099 0-.394501 0-.014984 0-.213073-4.097839-.200378-4.097839.009979 0 .149597-.099915.319977-.099915.960785-.19989 1.733887-.59967 2.166076-1.099426.334595-.39978.5607-.899536.687897-1.499206.101502-.499756.111298-1.699158.018006-2.198914-.145325-.899475-.465912-1.599121-.921906-1.998901-.483398-.499756-1.314789-.599732-1.983673-.299866-.304199.099914-.662964.39978-.877289.699646-.396972.59967-.776184 1.699097-1.288055 3.598083-.618012 2.198914-1.086884 3.49823-1.646088 4.497681-.904968 1.599182-2.406555 2.598633-4.213928 2.998474-.654999.099976-1.14148.099976-1.889374.099976-.525482 0-.759369 0-1.089477-.099976-1.822785-.399841-3.393738-1.299377-4.328339-2.698608-.65799-.999512-1.078766-2.198853-1.277771-3.798035-.053009-.39978-.097015-2.298828-.062988-2.698608z" fill="#fff" stroke="#fff" stroke-linecap="round" stroke-linejoin="round" stroke-width=".013525"/><path d="m159.344727 668.104126h-11.2417v-2.078674-2.078614h9.350708 9.350495v-5.196716-5.196594h1.891113 1.891174v7.275268 7.27533z" fill="#fff" stroke="#fff" stroke-linecap="round" stroke-linejoin="round" stroke-width=".013525"/><g stroke="#000"><path d="m224.851807 22.055664-2.802521-2.940247-2.108399-1.79602-3.897796-2.620422-4.939789-2.556458-3.81131-1.261047-3.872894-.823487-1.38971-.202575-2.888397-.166565h-57.792297l-1.571503.149109-1.769684.23883-1.77481.237854-2.729584.542298-2.312927.60498-2.443177.75415-2.944.941651-2.128815.902222-3.849792 1.714965-2.757416 1.535096-2.105774 1.193847-3.235016 2.159302-2.420105 1.633972-1.436004 1.202759-1.895996 1.449097-3.211792 2.60205-2.422791 2.540711-4.259003 4.688904-2.599517 3.248474-1.677399 2.623474-1.270996 2.183227-1.911896 3.727417-.72699 1.646729-1.161316 2.961609-.662292 2.597839-.78479 3.270996-.339813 2.680176-.048005 2.382935v3.995727 2.844238 875.034546l.163819 2.491822.345184 3.392944 1.29892 4.768555 1.239685 3.774292 3.604889 7.25415 2.573822 4.055908 2.468475 3.198731 1.481903 1.975097 2.669403 2.862549 3.069916 3.021973 2.176483 1.925293 4.018708 3.118164 4.114501 2.853638 2.307496 1.273193 3.523498 1.845459 3.690308 1.679809 4.154114 1.453736 3.725891 1.167602 3.682495.744019 3.285003.44165 3.078888.267334h56.727997l2.273804-.216064 3.662109-.645264 2.137207-.508789 2.603485-.899902 3.707703-1.511841 3.720795-1.890991 3.118805-1.959839 2.494415-2.059204 3.085693-2.878906 3.114105-3.829102 2.387879-3.915405 1.379303-3.233887 1.069794-2.901367.814514-3.351929.415405-3.602051.023987-2.142456v-916.841736l-.280701-2.93341-.638794-3.844849-1.317688-4.256531-1.532196-3.683227-2.533722-4.457092-1.969879-2.576661z" fill="none"/><path d="m210.392914 882.049072v6.066162l.250397 2.256836-.228913.363282.018799.432373.036804.983032-1.031891 1.318603-1.916229 1.540284-1.828613 1.497192-2.131287 1.081421-1.9039.526611-1.601807.143677h-79.781402l-1.995087-.409302-2.218109-.85144-1.543701-.893921-1.324005-1.048218-.833893-.996338-.929718-1.464477-.571076-1.094605-.331024-.852295-.221374-1.444946v-.970093-816.23529l.152374-.788514.135407-.617736.223907-.775818.262909-.760254.528473-1.021607.77182-1.105407.950683-1.048889 1.518799-1.194764 1.149811-.70111 1.351288-.549927 1.762817-.483765 1.566986-.171997h79.092621l1.099091.098877 1.389099.276733 2.220703.744873 1.190491.675049 1.495392 1.144776.893829.851623 1.128876 1.648926.741119 1.63916.385986 1.573975.050019 1.062439c-.080414 114.312805-.104187 228.636902-.098328 342.966919.008026 155.522827.071228 311.05664.121796 466.58789z" fill="none"/><path d="m95.048889 36.049744-2.874603 2.164978-1.394501 1.27124-1.106384 1.18866-1.339203 1.497253-1.382111 1.735962-1.137481 1.547363-1.147095 1.61499-1.763306 2.778199-1.133514 1.988586-.919098 1.690247-1.332397 2.591491-1.112092 2.324036-1.565795 3.382385-.635712 1.217163-.772797 1.852417-.724914 1.750183-.988983 2.110962-1.044709 2.261475-.859985 1.701233-.748718 1.458069-.778397 1.500732-1.16159 2.031128-.699402 1.166504-1.321595 2.110474-1.1613 1.584716-.918305 1.124756-1.467209 1.69513-1.419998 1.417785-1.993393 1.724915-2.255706 1.722961-2.1512 1.20459-1.371795.68512-3.115006 1.230774-4.153793 1.061096-3.086807.467468-3.221299.302124h-28.482895l-.946502.052246-.978394.357056-1.163498.473877-.982208.699768-1.014603 1.075439-.928192 1.35492-.650207 1.722473-.127701 1.591614.296005 1.441284.741501 1.590637 1.990494 3.447693 2.4225 4.1521 2.335404 3.530029 1.3741 1.961365 1.242599 1.703613 1.4133 1.826172 1.341095 1.7406 2.146606 2.659058 1.972305 2.304382 1.085892 1.371582 2.4142 2.763428 1.308899 1.524902 3.0336 3.393555 1.581604 1.803101 1.344406 1.310913 2.463089 2.622803 1.046203 1.088012 4.846207 5.019654 3.601089 3.76593 1.74321 1.82428 2.105393 2.240112 6.0616 6.476318 2.393707 2.587158 2.013992 2.197632 1.628204 1.851319 1.140503 1.252197 1.6465 1.980102 1.725998 2.180542 1.528793 1.914673 1.25531 1.478028 1.129395 1.520019 1.651901 2.245972 1.151398 1.598144 1.312988 1.807434 1.089111 1.733887 1.861908 2.956787 1.971589 3.314881 1.214996 2.466064 1.369507 2.682495.953308 2.421509 1.070709 2.907043.762695 2.01532h.624604" fill="none"/><path d="m234.684814 227.27771h3.314789l1.210785.195923 1.419708.53009 1.570404.970093.931885.980286.824402 1.300903.460724 1.28833.063995.910522.158081 2.356812.257813 3.056763.217102 3.227966.203888 3.982056.12561 3.052978.145203 4.342651.085998 5.451661v13.881591l-.156189 2.154236-.069 2.192932-.20282 3.005982-.226898 2.94635-.169006 2.829468-.326477 4.362732-.121613 1.929504-.121002 1.182373-.308289 1.247437-.753814 1.131775-1.019593.993835-1.545806.799622-1.280487.224548h-4.571808-.172303z" fill="none"/><path d="m234.759888 148.716736h3.314819l1.210785.195862 1.419708.530151 1.570404.970032.931885.980285.824402 1.300965.460815 1.288269.063996.910522.157989 2.356873.257813 3.056701.217102 3.228028.203888 3.981994.12561 3.052979.145203 4.342651.085998 5.451722v13.881591l-.156219 2.154236-.069977 2.192932-.20282 3.005982-.226898 2.946289-.168976 2.829529-.326416 4.362732-.121704 1.929443-.121002 1.182373-.308289 1.247436-.753815 1.131836-1.019592.993836-1.545807.799621-1.280487.224549h-4.571716-.172394z" fill="none"/><path d="m234.318207 693.216309.706695.005004 1.150391.263611.944397.761963.332825.70813v46.67096l-.351014.832519-1.166595.896607-.766205.177368-.797607-.036011z" fill="none"/><path d="m107.235413 23.943848-2.854798.191894-3.520508.795288-3.299896.791382-3.356811.854981-10.584809 3.049682-8.242706 2.611206-6.98288 2.302124-8.191299 2.713257-6.855011 2.117798-7.561798 2.217529-3.023499.890259-3.014801.780945-2.591903.652771-4.39679 1.008545-3.449799.730224-4.14891.730042-5.673889.74707-2.260208.257508-2.516205.193603-1.513092.53717-1.714401.823609-1.153702.80426-.819199.616211-1.093506 1.169312-1.2892 1.65863-1.0363 2.031067-.400589 1.598999-.188904 1.035156v22.386109l.190903 1.305664.495804 1.408874.829589 1.649719.833207 1.21753 1.265594 1.517822 1.473007 1.675171 1.747193 1.80603 1.525802 1.66687 1.026901 1.42627.515702.922546" fill="none"/><path d="m234.550415 491.126892 1.010376.391602 1.228424.934143 1.27417 1.026611 1.333527 1.347534 1.349792 1.589417 1.40741 1.795959 1.067993 1.488587.850891 1.199707.892792 1.391479.997314 1.625794.602082 1.243286.80252 1.688049.932404 1.963196.914795 2.224853.62619 1.907349.573395 2.004883.594818 2.796814.148895.358948 1.181397-.137574.974395-.184509 1.291504-.53949 1.001709-.689026 1.154389-.995361.604004-.850037.493408-1.1203.370178-1.373291v-45.334228l.2034-1.176514.748016-1.094971.878601-.846435 1.108399-.659241 1.627685-.612976 1.999512-.311829 2.419006-.043213 3.341889.509766 2.789001 1.026062 1.757599.92572 1.480591.994629 2.105407 1.925842 1.356995 1.789734.774597 1.803589.538208 2.143372.175507 1.824585v15.365478l.742615 2.328369.815094 3.041932.663696 2.102294 1.446106 5.396851.108093.544128.362396 1.618104.438385 2.007324.528107 2.589966.511108 2.936706.532013 3.408447.52179 3.681763.273804 2.558655.174194 1.973083.125 1.764099.168701 2.524415.092987 2.511596.1008 2.957215.032013 3.589111-.137207 3.618408-.158783 3.455078" fill="none"/><path d="m234.550415 580.183594 1.010376-.391541 1.228424-.934143 1.27417-1.026611 1.333527-1.347534 1.349792-1.589417 1.40741-1.795959 1.067993-1.488587.850891-1.199768.892792-1.391418.997314-1.625794.602082-1.243347.80252-1.687988.932404-1.963196.914795-2.224853.62619-1.907349.573395-2.004944.594818-2.796814.148895-.358887 1.181397.137574.974395.184509 1.291504.539429 1.001709.689086 1.154389.995362.604004.850036.493408 1.120301.370178 1.373291v45.334167l.2034 1.176575.748016 1.09491.878601.846496 1.108399.659241 1.627685.612976 1.999512.311829 2.419006.043151 3.341889-.509765 2.789001-1.026001 1.757599-.925781 1.480591-.994568 2.105407-1.925843 1.356995-1.789733.774597-1.803589.538208-2.143372.175507-1.824585v-15.365478l.742615-2.32837.815094-3.041931.663696-2.102295 1.446106-5.39685.108093-.544129.362396-1.618103.438385-2.007324.528107-2.590027.511108-2.936645.532013-3.408509.52179-3.681762.273804-2.558594.174194-1.973083.125-1.7641.168701-2.524475.092987-2.511596.1008-2.957154.032013-3.589172-.137207-3.618347-.158783-3.455139" fill="none"/><path d="m160.669403 231.787048h-6.146606l-2.040589.161744-1.125305.195312-1.574799.448669-1.379089.538819-1.496521.749695-1.163696.773986-1.206391.956543-1.075012 1.064026-1.10141 1.414978-.593994 1.147217-.535797 1.292236-.50769 1.368165-.109192 1.53009-.019013 1.060303v58.697631l.136505 1.116394.206482.990967.327423.914673.295777.888184.502319.986084.7034 1.070251.727081.830689 1.142517 1.229187.954804.848449 1.123108.738098 1.302887.761841 1.578094.618531 1.752991.419982 1.624817.252015 1.929107.035522 12.217591-.152283 1.240692.008973 1.44162-.264832 1.208984-.35376 1.340607-.589538 1.254791-.644593.907196-.538757 1.0383-.819946.710815-.737854.671295-.635376 1.267212-1.784729 1.082092-2.390991.422608-1.730774.031982-1.770142v-58.939392l-.141388-.908997-.210113-.661499-.298401-1.071411-.441803-1.076843-.473297-1.017761-.369782-.614868-.996216-1.350769-.957183-1.000245-.9422-.850586-.882507-.603881-1.188019-.677308-1.338898-.664062-.872497-.361816-.979401-.321778-.904785-.184082-1.432801-.237488-.466918-.058288-1.012299-.054932z" fill="none"/><path d="m160.669403 631.084717h-6.146606l-2.040589.161743-1.125305.195312-1.574799.44867-1.379089.538879-1.496521.749634-1.163696.773987c-.40213.318848-.80426-.010132-1.206391.956543-1.161193-.13385-.808288.404236-1.212402.606323l-1.034576 1.598023-.523438 1.421875-.535797 1.292297-.50769 1.368103-.109192 1.53009-.019013 1.060303v58.697571l.136505 1.116455.206482.990967.327423.914734.295777.888183.502319.985962.7034 1.070313.727081.830688 1.142517 1.229248.954804.848389 1.123108.738098 1.302887.76178 1.578094.618591.844666.202332.908325.21759 1.624817.252075 1.929107.035034h12.213776l1.244507-.143493 1.44162-.264832 1.208984-.35376 1.340607-.589538 1.254791-.644593.907196-.538818 1.0383-.819885.710815-.737793.671295-.635376 1.267212-1.784729 1.082092-2.390991.422608-1.730774.031982-1.770142v-58.939453l-.141388-.908936-.210113-.661499-.298401-1.071411-.441803-1.076904-.473297-1.0177-.369782-.614929-.996216-1.350708-.957183-1.000245-.9422-.850646-.882507-.603882-1.188019-.677246-1.338898-.664124-.872497-.361755-.979401-.321778-.904785-.184143-1.432801-.237426-.466918-.05835-1.012299-.054871z" fill="none"/><path d="m84.370911 106.136719h-4.949524l-1.011292.197754-1.022003.656738-.769379.842163-.623016 1.275513-.411682 1.371521-.603729 2.171509-.530274 2.143066-.382721 1.966675-.314178 1.950622-.252808 2.01117-.221191 2.180847-.141815 2.35498-.04599 2.058106.033996 2.893493.186585 2.922913.259704 3.118164.325714 2.741211.472596 2.42981.383697 2.064209.622803 2.425048.48761 1.701294.567291 1.13324.656006.755432.789276.546204.779999.318054.827118.090942h5.167297.229614v-44.330932z" fill="none"/><path d="m234.306213 98.582458h3.362275l.952514.257264.886811.75.379699 1.093261v10.777466l-.399719.998291-.473908.712342-.636291.441467-.507385.159607h-3.366211-.211609z" fill="none"/><path d="m183.211212 754.977051h-46.68161l23.34079 36.916504z" fill="none"/><path d="m183.211212 799.134644h-46.68161l23.34079 36.916503z" fill="none"/><path d="m183.211212 843.319702h-46.68161l23.34079 36.916504z" fill="none"/><path d="m158.584686 744.212769h-27.013l-1.869782.279907-1.34201.358642-1.605988.66272-1.166107.750366-1.141205.875855-.783294.823486-.7034.7948-.631897 1.110229-.479706.986695-.345306 1.025635-.248688 1.194824-.069.829956v125.134521l.052002.87024.166687 1.048095.42221 1.194947.732788 1.491821.853699 1.148437 1.417603 1.351929 1.177917.91687 1.596497.857422 1.912689.614502 1.744293.195068h57.292023l1.481995-.116943 1.537902-.379028 1.025788-.418824 1.047119-.555053.798279-.485108 1.086792-.815307 1.179809-1.276368.687104-.918457.436706-.77478.397186-.765014.364319-1.035035.171295-.794799.085999-1.218628v-125.142579l-.075989-1.098388-.20401-.950196-.226593-.797973-.342926-.763062-.796875-1.469482-.864319-1.141724-1.363586-1.221924-1.402497-.947143-.768219-.401733-1.669097-.592042-1.311982-.249633-1.484405-.182129-1.15802.01001z" fill="none"/><path d="m205.452301 9.665771v-3.148437l-.37149-1.455078-.755921-1.067261-1.187591-.978882-1.702485-.483642h-45.228027l-1.583496.188598-1.213196.588013-.860199.633545-.620788.614868-.776703 1.219116-.272614 1.398865v2.485169z" fill="none"/><path d="m234.685089 301.756714h3.314789l1.210815.195923 1.419709.53009 1.570404.970093.931884.980285.824402 1.300904.460694 1.28833.064026.910522.158081 2.356812.257812 3.056763.217102 3.227966.203888 3.982056.12561 3.052978.145203 4.342651.085999 5.451661v13.881591l-.15622 2.154236-.069 2.192932-.202789 3.005982-.226899 2.94635-.169006 2.829468-.326508 4.362732-.121582 1.929504-.121002 1.182373-.308288 1.247437-.753815 1.131774-1.019592.993836-1.545807.799621-1.280518.224549h-4.571777-.172302z" fill="none"/><path d="m235.361511 336.932495v-34.756348l2.026306.23816c2.75467.323791 4.802033 1.575988 5.697083 3.484497 1.06073 2.261779 1.523621 9.710205 1.722565 27.717956.146362 13.248535.067199 17.0224-.52829 25.191651-.775818 10.643005-.859162 10.951843-3.291107 12.192505-.894532.456359-2.068512.687927-3.487488.687927h-2.139069z" fill="#1a1a1a"/><path d="m235.361511 262.564026v-34.751465l1.859314.157898c2.399536.203674 4.319275 1.136414 5.485138 2.664978.836548 1.096741.976685 1.73877 1.39975 6.413513.258575 2.857117.562134 12.525879.674591 21.486084.178101 14.191895.113098 17.540283-.504486 25.983032l-.708893 9.691651-1.165192 1.202148c-1.303436 1.344849-2.863983 1.898682-5.357971 1.901612l-1.682251.002014z" fill="#1a1a1a"/><path d="m235.361511 183.935059v-34.757142l1.923706.198548c2.491547.257141 4.263001 1.117798 5.418213 2.632324 1.413452 1.853149 1.854645 7.515259 2.105133 27.017578.176483 13.73938.105622 18.072693-.427643 26.149719-.467315 7.078186-.789764 9.982605-1.199157 10.80188-.796204 1.59314-3.179566 2.714234-5.770356 2.714234h-2.049896z" fill="#1a1a1a"/><path d="m262.501495 608.000977c-1.87149-.706604-2.981903-1.715394-3.371185-3.062684-.264404-.915405-.347198-22.052246-.274506-70.132873l.104096-68.822632 1.294586-1.186462c2.041016-1.870362 4.974426-2.377869 9.193329-1.590454 4.224274.78833 8.823791 4.073425 10.362976 7.401428.690216 1.492492.7677 2.407532.932495 11.012939l.179627 9.385193 1.704101 5.814209c7.687195 26.228455 7.703095 50.972839.049988 77.627075l-1.891815 6.588745-.110687 9.171326-.110688 9.171326-1.0625 1.92041c-1.259918 2.277161-3.707123 4.331726-6.892608 5.786438-1.902008.868591-2.859101 1.068115-5.666596 1.181152-2.001312.080628-3.810913-.027466-4.440399-.265136z" fill="#1a1a1a"/><path d="m256.638489 554.730713c-.599884-.722778-2.35968-1.631226-3.69928-1.909729l-1.0625-.220825-.09198-16.882019-.09201-16.88208 1.508575-.396119c.829712-.217834 2.106201-.869384 2.8367-1.447876l1.328095-1.051757v19.672485c0 10.819885-.059998 19.672485-.133698 19.672485-.074005 0-.340881-.249511-.593994-.554565z" fill="#1a1a1a"/><path d="m235.054169 535.617004v-43.396911l.795929.425964c.437774.234314 1.607483 1.270569 2.599365 2.302918 4.513916 4.697876 9.106842 12.693542 10.930145 19.027893l.903382 3.138488v18.5141 18.51416l-.905213 3.138488c-1.92215 6.664307-6.569122 14.657166-11.236938 19.327637-1.321534 1.322327-2.556672 2.404236-2.744721 2.404236-.217956 0-.341949-15.735046-.341949-43.396973z" fill="#1a1a1a"/><path d="m128.991974 994.808472c-.966217-.254517-2.104859-.955933-3.092468-1.309326-1.705475-.610474-3.388031-1.367798-5.043396-2.083985-13.355194-5.778076-24.711365-15.751709-30.378815-29.368896l-5.070801-12.183472.215668-447.855896-1.684998-452.839539 5.21817-6.824401c6.707367-8.771912 19.171448-19.417786 30.3284-25.751648 12.835724-7.286866 20.410156-6.777039 55.401123-6.275879 29.89917.428283 32.289856-.252686 38.186859 2.892944 7.635865 4.07312 15.043793 13.064575 18.546814 20.553467.664429 1.420532 1.685547 3.456299 2.050568 13.276123 1.048248 28.202515.444916 121.629089-.185639 457.039917l-.066009 459.799194-.810364 6.398194-3.452606 8.196289c-1.760254 4.178711-8.988983 10.01184-12.103882 12.170532-10.157989 7.039551-14.517456 6.439209-48.744842 6.355957-20.031311-.049072-28.55484.083008-34.449311-1.002197-1.847259-.340088 1.412903.466064-.163879.050903zm78.874756-99.276123 3.278717-3.080201v-65.506591l-.242401-215.773865.254272-68.970581.033112-61.494324c.113342-210.563904-.504792-313.306274-.891419-364.084717-.356109-46.776367-.407196-49.501159-1.952881-50.801941l-2.99002-2.516296-44.143219-1.503479-43.5896.513977-4.702728 2.60907-3.534424 3.534424v412.250244 412.250183l2.861938 2.765869c2.932709 2.834229 4.774384 2.888428 47.720154 2.888428 43.862427 0 44.675415-.052002 47.898499-3.0802z" fill="#ff5f53"/><path d="m79.237213 194.509521c-4.048431-8.333007-16.624008-23.718261-35.083847-43.121582-26.810303-28.180664-38.940384-44.271728-38.007309-50.849487.239197-1.686218 1.465317-4.243408 5.120499-5.01886 3.191299-.677002 8.11058.351868 17.450897-.019836 23.399353-.931152 25.924438-.221985 34.189697-9.370606 2.825684-3.127746 9.728836-13.68396 13.559799-21.888183 2.025696-4.338074 4.050446-8.453125 5.510529-10.90387.762268-1.27948 1.070251-2.313659 1.470306-2.764099.282837-.318481.760285-.222656.821412-.256226 1.850952-1.015747.127807 12.833497-.114197 27.832154l.242126 24.663452-.682159 2.606811h-3.528015c-5.21933 0-7.635102 7.054078-7.625428 22.26648.010773 17.003174 1.776886 22.927002 7.156098 24.002808l4.169067.833862v23.905701c0 13.148132.49176 29.008606.257447 29.008606-.234314 0-3.283234-7.585083-4.906922-10.927125z" fill="#ff5f53"/><path d="m110.140106 887.414917c-3.069366-3.267212 5.678498-7.793091 8.852265-71.960693l3.143493-63.555298.590668-4.82959c.526459-4.304932 8.306244-3.401978 38.301636-3.401978 25.867492 0 38.247528-2.218994 38.035186.969727l3.45868 11.37146-2.791687 59.575684 3.062988 66.163208-6.743103 5.972412c-2.393707 2.120117-8.120331 2.591308-34.167511 2.591308-30.89856 0-48.703095.339112-51.742615-2.89624zm60.608734-26.444458c6.344879-10.044922 11.383789-15.734009 11.383789-16.230591s-8.672546-.205688-22.307678-.205688c-13.635101 0-20.985107-.17334-20.985107.1875 0 1.919433 20.33258 34.715576 21.23584 34.157226.588379-.363647 4.328247-7.863403 10.673156-17.908447zm1.571961-45.174561c6.025482-9.609497 10.689972-15.791748 10.346344-16.135498-.343628-.343628-10.1633-1.400146-23.54773-1.186523l-22.589813.660767 12.338043 18.162719c12.124024 17.847657 11.332337 16.58667 12.689179 15.100586.933532-1.022705 4.738495-6.992676 10.763977-16.602051zm-4.748383-38.553344c6.722412-10.606201 12.203461-20.459595 11.88266-20.780396-.320831-.320801-6.798492.015991-20.134125-.11914l-20.978424-.212159 10.502991 17.562867c6.49173 10.855346 11.172638 15.076904 11.097534 17.087524-.008026.209351.906983-2.932495 7.629364-13.538696z"/><path d="m10.385513 88.232788c-4.583709-5.306763-4.275085-6.140503-4.275085-19.985229 0-17.24524 1.722793-19.616089 15.057556-21.237244 9.677841-1.176575 22.064651-2.661011 54.59169-14.722839 13.930481-5.165711 29.546845-8.053345 29.95932-7.64087.412476.412476-7.824768 7.642457-12.703277 12.40149-7.113862 6.939636-10.036103 11.456787-15.835968 23.508117-9.737305 20.232727-12.316712 25.432984-19.950211 29.920594-5.898804 3.467895-9.645676 4.83667-24.461273 4.504882l-16.879959-.378051z"/><path d="m75.25827 147.735168c-.876129-2.142639-2.243866-11.426574-2.30954-18.438903-.078887-8.424866.588898-15.943604 2.953949-19.862 1.464051-2.425659 4.204834-2.822327 5.935242-3.155578.818634-.157593 2.200287-.947632 2.77124.717651 1.004273 2.929138.909302 10.699036.909302 23.155762 0 20.495971.296784 21.572265-2.45639 21.572265-1.798493 0-6.805023-1.546509-7.803803-3.989197z"/><path d="m150.788116 9.067017c0-1.778504.758606-5.191834 4.315308-6.112671 4.019104-1.04065 12.447418.016967 24.704254.216736 11.740845.191345 18.485382-.47699 21.979187.382995 2.88443.709961 3.126496 3.587464 3.319763 4.593872.439637 2.289124-2.614135.939942-26.90979.939942-14.471374 0-27.408722.662841-27.408722-.020874z"/><path d="m239.740417 106.138428c.000885-3.581055.080689-4.980347.177277-3.109497.096588 1.870849.095886 4.800903-.002014 6.511108-.097504 1.710266-.176544.179565-.17569-3.401611z"/><path d="m235.038086 106.108215v-6.791809l1.878235.155457 1.878204.155456.145691 5.5094c.191589 7.245849.047699 7.763305-2.158661 7.763305h-1.743469z"/><path d="m149.024231 772.992188-10.681702-16.861329 10.977234-.195312c6.037445-.1073 15.720246-.1073 21.517334 0l10.540131.195312-10.297486 16.291382c-5.663604 8.960205-10.539642 16.54773-10.835632 16.861206-.29602.313599-5.34494-7.017456-11.219879-16.291259z" fill="#1a1a1a"/><path d="m149.02948 817.162476-10.824921-17.115845 11.046204-.195313c6.075409-.107422 15.824524-.107422 21.664734 0l10.61853.195313-10.743652 16.999512c-5.908997 9.349853-10.786927 17.052002-10.839813 17.115966-.052887.063965-4.967377-7.585815-10.921082-16.999633z" fill="#1a1a1a"/><path d="m149.131073 861.490112-10.611481-16.819458 10.888703-.195312c5.988769-.107422 15.60025-.107422 21.358825 0l10.470185.195312-10.395966 16.467896c-5.717804 9.057495-10.554108 16.626221-10.747406 16.81958-.193298.193237-5.126587-7.217285-10.96286-16.468018z" fill="#1a1a1a"/><path d="m235.023102 718.591797c0-20.556946.078186-24.480103.487854-24.480103 1.263031 0 1.289642.543457 1.19693 24.433106l-.091095 23.469116-.796845.528931-.796844.529174z" fill="#1a1a1a"/></g><path d="m151.338837 713.773621c-.490296-.102539-1.340088-.499024-1.863861-.589112-2.10907-.363098-4.242463-1.048523-6.038849-2.828125-2.210694-2.190063-2.457733-4.257568-2.924958-7.220092-.064392-.408265-.335479-3.329041-.721893-7.965516-.471924-5.661926-.2659-14.134094-.220856-24.077392l.132721-29.310364 2.185395-3.072082c1.684509-2.367981 2.852874-4.800171 5.708068-6.164856 3.144562-1.502869 4.306092-1.056275 13.174103-.944581 7.320252.092164 8.221192.061768 9.573792.564637 4.38446 1.629821 7.576843 5.05896 8.681122 9.183838.229065.855712.419616 8.864868.213958 32.358947l-.055999 30.50885-.830841 2.484131c-.942566 2.817871-3.22522 4.249207-5.911591 5.53357-1.139435.544738-2.595703 1.144714-3.336365 1.283508-1.109222.207947-5.887268.436096-10.043548.391296-2.349793-.024963-3.611634.238343-5.143494.028992-.872711-.119385-.996674.165039-1.322815.097046zm13.304718-23.745118c2.767181-.587158 4.69696-2.04663 5.743744-4.343933.475524-1.043518.570526-1.683471.575317-3.875.009003-4.207275-1.028015-6.307007-3.780762-7.653808-2.397796-1.173096-5.795196-.862244-7.695556.704162-1.164826.960144-1.857026 2.352906-3.009003 6.054016-1.008514 3.240357-1.415802 4.042725-2.174347 4.283509-1.580505.501587-2.900299-1.365784-2.622559-3.710694.194642-1.643615.66034-2.289306 2.027588-2.811462 1.121247-.428223 1.135346-.447998 1.13263-1.587158-.002014-.634461-.07251-1.57544-.157715-2.091065-.134339-.812683-.244538-.9375-.827728-.9375-2.305787 0-4.850586 1.920594-5.661255 4.272583-.693665 2.012513-.636872 5.684571.113708 7.352417 1.14975 2.554871 2.922272 3.724976 5.665894 3.740235 1.403961.007995 2.003784-.117981 2.997711-.628846 1.904297-.97882 2.694763-2.232421 3.991455-6.330139 1.204132-3.805175 1.747314-4.65625 2.97171-4.65625.975464 0 2.093415.645691 2.496338 1.441773 1.355621 2.678467.171845 5.702026-2.551971 6.518127-.935212.280152-1.035187.387879-1.033234 1.112671.002991.968323.286255 3.427429.395355 3.427429.042786 0 .674011-.126465 1.40268-.281067zm5.949798-29.218933v-7.5h-2-2v5.25 5.25h-9.25-9.25v2.25 2.25h11.25 11.25z" fill="#ff5f53" stroke="#1a1a1a" stroke-width=".25"/><path d="m115.850006 896.993408c-1.717316-.847168-4.919739-2.14624-5.543915-3.516113-.839447-1.842407.865418-110.610718.865418-412.916565 0-355.434876-2.26944-409.588745-1.003784-412.036255 2.622741-5.071838 6.803009-6.807922 52.501525-5.382996l40.566498.525757 3.700043 2.696961 2.403564 3.702881v409.597534c0 267.419617.653199 377.355041.226532 405.857971-.046203 3.083374.159241 4.384277.030304 5.657959-.085113.84021-.506713 2.137207-.562439 2.259644-2.456848 5.392456-4.141662 3.931762-48.478149 3.907104-34.720642-.019043-42.052978.954712-44.705627-.353882zm80.272522-10.460449c2.129212-1.989014 3.212219-4.135254 3.664581-7.262329.353211-2.441528.505768-32.491089.339081-66.776978l-.3031-62.338012-1.816986-4.766602-4.72992-1.78186-30.78479-.312622c-34.357483-.348999-37.229858.015991-40.345215 5.125366-1.881866 3.086304-1.951904 5.544922-1.955505 68.662842l-.003998 65.461914 3.405823 3.405761 3.405823 3.406006h33.05075 33.050751zm-22.91983-173.060852c1.576812-.81543 3.849579-2.683533 5.000091-4.146118 2.027741-2.577881 2.086914-3.590698 2.086914-36.43982l-.699493-33.998535-2.388062-3.40625c-3.72995-4.248169-8.212402-5.252624-18.24179-5.260071-5.846405-.003967-8.30481.200257-11.765351 1.945313-7.844452 3.955688-7.972412 4.602966-7.972412 40.318909 0 34.666137.412445 35.728576 7.121826 40.210754 2.993927 2.000122 4.442902 2.362 13.608033 2.362 7.240142 0 11.258117-.55597 13.250244-1.586182zm-5.95575-138.903992c6.100861-3.11737 8.535034-6.759826 8.535034-12.771789 0-8.422303-5.953521-14.176575-15.262664-14.751831-7.023499-.434021-12.572083 2.342529-15.43573 7.724182-7.145966 13.429382 8.054626 27.008667 22.16336 19.799438zm1.451477-63.42987c1.100891-1.10083 1.574127-3.488648 1.574127-7.942139 0-8.515869-1.078613-9.516296-10.260223-9.516296-9.383881 0-10.775726 1.206726-10.775726 9.342224 0 8.489013 1.314331 9.690368 10.601684 9.690368 5.288056 0 7.717682-.431701 8.860138-1.574157zm.372071-38.694703c.697265-.697265 1.202056-4.038757 1.202056-7.956909 0-8.443786-1.523132-9.873596-10.517974-9.873596-8.88852 0-10.517975 1.471985-10.517975 9.501526 0 8.650879 1.005646 9.531006 10.890045 9.531006 4.685791 0 8.216309-.474487 8.943848-1.202027zm-.629792-39.522583c2.440125-2.208251 2.623261-13.435058.257721-15.800598-2.265899-2.26593-15.100982-2.204956-17.629944.08368-2.480865 2.245178-2.599762 12.862487-.174072 15.542907 2.276703 2.515686 14.821259 2.640137 17.546295.174011zm-.105713-38.445922c1.616791-.865296 1.937561-2.137513 1.937561-7.684388 0-9.028808-1.237426-10.311218-9.949493-10.311218-9.515106 0-11.086456 1.346741-11.086456 9.501526 0 8.511047 1.0867 9.531006 10.154541 9.531006 3.853454 0 7.878174-.466614 8.943847-1.036926zm4.897461-81.806885c5.473023-3.607849 6.983368-3.069092 7.021759-39.480469.034394-32.658203-.456146-33.684509-2.485015-36.263794-1.32251-1.681274-2.166169-2.683227-3.796631-3.532654-2.8508-1.485229-6.79657-1.973327-14.020111-1.973327-9.165131 0-9.822815.81195-12.816742 2.812011-6.853638 4.578553-7.27472 4.726258-6.965302 40.575684.2612 30.264404-.110412 32.143982 1.781098 34.657288 3.827423 5.085571 5.867462 5.857177 18.303924 5.878845 9.727875.016907 10.496369-1.03833 12.97702-2.673584z" fill="#1a1a1a" stroke="#000"/><path d="m152.676605 394.885132c-2.673034-.963074-3.293884-2.846069-3.090179-9.371948.171692-5.49939.641083-6.645203 3.204407-7.822266 1.521881-.698853 2.424255-.797668 7.30307-.799866 6.75769-.00299 7.980621.382813 9.095916 2.869263.612549 1.365478.72342 2.476196.730347 7.315247.007019 5.385131-.038788 5.759704-.826843 6.674865-.620026.719971-1.408264 1.063172-3.061646 1.332947-3.400146.554932-11.602569.433167-13.355072-.198242z" fill="#333" stroke="#333" stroke-width=".373293"/><path d="m154.044128 433.971069c-3.60559-.937256-4.482635-2.730407-4.454803-9.108398.02179-5.007263.739014-7.153442 2.730988-8.172546 1.292724-.661316 2.197631-.749512 7.69168-.749512 8.498566 0 8.963044.266296 9.773957 5.603393.32492 2.138306.329162 3.613953.017212 5.999207-.531037 4.060913-1.107575 5.182312-3.092682 6.015442-2.092072.878052-9.897522 1.132202-12.666382.412414z" fill="#333" stroke="#333" stroke-width=".370491"/><path d="m152.75824 472.739075c-2.545655-.943116-3.112152-2.488037-3.091492-8.430725.028015-8.055848 1.305481-9.158692 10.574554-9.129151 4.140778.013184 5.161408.130432 6.3685.731568 2.633393 1.311401 2.929016 2.08081 3.069763 7.988281.138276 5.804077-.24295 8.009033-1.506225 8.711609-1.283997.71405-13.55835.816345-15.4151.128418z" fill="#333" stroke="#333" stroke-width=".365528"/><path d="m155.25177 512.311768c-2.307281-.35083-4.070343-1.263062-4.79602-2.481568-.630646-1.058899-.723115-1.907043-.723115-6.632202 0-8.754517.4422-9.154602 10.118409-9.154602 9.554535 0 9.934478.342224 9.934478 8.948181 0 8.550293-.560974 9.159485-8.623535 9.365296-2.643493.067504-5.3031.047241-5.910217-.045044z" fill="#333" stroke="#333" stroke-width=".370789"/><path d="m152.376892 266.1604c.003998-3.458129.213989-4.289978 1.210877-4.80542 1.183624-.612121 3.046112-.201232 3.810821.840638.332825.45343.371674.794861.427155 3.756469l.061096 3.257691h-2.756897-2.756897z" fill="#ff5f53"/></svg>